<mxfile host="app.diagrams.net" modified="2023-11-12T18:31:08.579Z" agent="Mozilla/5.0 (Windows NT 10.0; Win64; x64) AppleWebKit/537.36 (KHTML, like Gecko) Chrome/119.0.0.0 Safari/537.36" etag="7gUx-V-oZSVPeTp1nTef" version="22.1.0" type="github">
  <diagram name="Page-1" id="TiM_tfwArYdKw1IMHGCN">
    <mxGraphModel dx="3200" dy="3007" grid="1" gridSize="10" guides="1" tooltips="1" connect="1" arrows="1" fold="1" page="1" pageScale="1" pageWidth="850" pageHeight="1100" math="0" shadow="0">
      <root>
        <mxCell id="0" />
        <mxCell id="1" parent="0" />
        <mxCell id="IvUGe0hoY3nlV3LCEhh_-10" value="&amp;lt;&amp;lt;interface&amp;gt;&amp;gt;&lt;br&gt;MovementStrategy" style="swimlane;fontStyle=0;childLayout=stackLayout;horizontal=1;startSize=30;horizontalStack=0;resizeParent=1;resizeParentMax=0;resizeLast=0;collapsible=1;marginBottom=0;whiteSpace=wrap;html=1;" parent="1" vertex="1">
          <mxGeometry x="-645" y="-991" width="160" height="60" as="geometry" />
        </mxCell>
        <mxCell id="IvUGe0hoY3nlV3LCEhh_-11" value="+ move(ImageView)" style="text;strokeColor=none;fillColor=none;align=left;verticalAlign=middle;spacingLeft=4;spacingRight=4;overflow=hidden;points=[[0,0.5],[1,0.5]];portConstraint=eastwest;rotatable=0;whiteSpace=wrap;html=1;" parent="IvUGe0hoY3nlV3LCEhh_-10" vertex="1">
          <mxGeometry y="30" width="160" height="30" as="geometry" />
        </mxCell>
        <mxCell id="IvUGe0hoY3nlV3LCEhh_-12" value="MoveDown" style="swimlane;fontStyle=0;childLayout=stackLayout;horizontal=1;startSize=30;horizontalStack=0;resizeParent=1;resizeParentMax=0;resizeLast=0;collapsible=1;marginBottom=0;whiteSpace=wrap;html=1;" parent="1" vertex="1">
          <mxGeometry x="-847" y="-941" width="177" height="60" as="geometry" />
        </mxCell>
        <mxCell id="IvUGe0hoY3nlV3LCEhh_-13" value="+ move(ImageView)" style="text;strokeColor=none;fillColor=none;align=left;verticalAlign=middle;spacingLeft=4;spacingRight=4;overflow=hidden;points=[[0,0.5],[1,0.5]];portConstraint=eastwest;rotatable=0;whiteSpace=wrap;html=1;" parent="IvUGe0hoY3nlV3LCEhh_-12" vertex="1">
          <mxGeometry y="30" width="177" height="30" as="geometry" />
        </mxCell>
        <mxCell id="IvUGe0hoY3nlV3LCEhh_-14" value="MoveLeft" style="swimlane;fontStyle=0;childLayout=stackLayout;horizontal=1;startSize=30;horizontalStack=0;resizeParent=1;resizeParentMax=0;resizeLast=0;collapsible=1;marginBottom=0;whiteSpace=wrap;html=1;" parent="1" vertex="1">
          <mxGeometry x="-850" y="-1021" width="180" height="60" as="geometry" />
        </mxCell>
        <mxCell id="IvUGe0hoY3nlV3LCEhh_-15" value="+ move(ImageView)" style="text;strokeColor=none;fillColor=none;align=left;verticalAlign=middle;spacingLeft=4;spacingRight=4;overflow=hidden;points=[[0,0.5],[1,0.5]];portConstraint=eastwest;rotatable=0;whiteSpace=wrap;html=1;" parent="IvUGe0hoY3nlV3LCEhh_-14" vertex="1">
          <mxGeometry y="30" width="180" height="30" as="geometry" />
        </mxCell>
        <mxCell id="IvUGe0hoY3nlV3LCEhh_-16" style="edgeStyle=orthogonalEdgeStyle;rounded=0;orthogonalLoop=1;jettySize=auto;html=1;entryX=0.25;entryY=0;entryDx=0;entryDy=0;dashed=1;endArrow=block;endFill=0;" parent="1" source="IvUGe0hoY3nlV3LCEhh_-17" target="IvUGe0hoY3nlV3LCEhh_-10" edge="1">
          <mxGeometry relative="1" as="geometry">
            <Array as="points">
              <mxPoint x="-758" y="-1031" />
              <mxPoint x="-605" y="-1031" />
            </Array>
          </mxGeometry>
        </mxCell>
        <mxCell id="IvUGe0hoY3nlV3LCEhh_-17" value="MoveRight" style="swimlane;fontStyle=0;childLayout=stackLayout;horizontal=1;startSize=30;horizontalStack=0;resizeParent=1;resizeParentMax=0;resizeLast=0;collapsible=1;marginBottom=0;whiteSpace=wrap;html=1;" parent="1" vertex="1">
          <mxGeometry x="-847" y="-1100" width="177" height="60" as="geometry" />
        </mxCell>
        <mxCell id="IvUGe0hoY3nlV3LCEhh_-18" value="+ move(ImageView)" style="text;strokeColor=none;fillColor=none;align=left;verticalAlign=middle;spacingLeft=4;spacingRight=4;overflow=hidden;points=[[0,0.5],[1,0.5]];portConstraint=eastwest;rotatable=0;whiteSpace=wrap;html=1;" parent="IvUGe0hoY3nlV3LCEhh_-17" vertex="1">
          <mxGeometry y="30" width="177" height="30" as="geometry" />
        </mxCell>
        <mxCell id="IvUGe0hoY3nlV3LCEhh_-19" style="edgeStyle=orthogonalEdgeStyle;rounded=0;orthogonalLoop=1;jettySize=auto;html=1;entryX=0.5;entryY=0;entryDx=0;entryDy=0;dashed=1;endArrow=block;endFill=0;" parent="1" source="IvUGe0hoY3nlV3LCEhh_-20" target="IvUGe0hoY3nlV3LCEhh_-10" edge="1">
          <mxGeometry relative="1" as="geometry" />
        </mxCell>
        <mxCell id="IvUGe0hoY3nlV3LCEhh_-20" value="MoveUp" style="swimlane;fontStyle=0;childLayout=stackLayout;horizontal=1;startSize=30;horizontalStack=0;resizeParent=1;resizeParentMax=0;resizeLast=0;collapsible=1;marginBottom=0;whiteSpace=wrap;html=1;" parent="1" vertex="1">
          <mxGeometry x="-660" y="-1100" width="190" height="60" as="geometry" />
        </mxCell>
        <mxCell id="IvUGe0hoY3nlV3LCEhh_-21" value="+ move(ImageView)" style="text;strokeColor=none;fillColor=none;align=left;verticalAlign=middle;spacingLeft=4;spacingRight=4;overflow=hidden;points=[[0,0.5],[1,0.5]];portConstraint=eastwest;rotatable=0;whiteSpace=wrap;html=1;" parent="IvUGe0hoY3nlV3LCEhh_-20" vertex="1">
          <mxGeometry y="30" width="190" height="30" as="geometry" />
        </mxCell>
        <mxCell id="IvUGe0hoY3nlV3LCEhh_-22" style="edgeStyle=orthogonalEdgeStyle;rounded=0;orthogonalLoop=1;jettySize=auto;html=1;entryX=0.081;entryY=0.017;entryDx=0;entryDy=0;entryPerimeter=0;dashed=1;endArrow=block;endFill=0;" parent="1" source="IvUGe0hoY3nlV3LCEhh_-14" target="IvUGe0hoY3nlV3LCEhh_-10" edge="1">
          <mxGeometry relative="1" as="geometry" />
        </mxCell>
        <mxCell id="IvUGe0hoY3nlV3LCEhh_-23" style="edgeStyle=orthogonalEdgeStyle;rounded=0;orthogonalLoop=1;jettySize=auto;html=1;entryX=0.476;entryY=1.007;entryDx=0;entryDy=0;entryPerimeter=0;dashed=1;endArrow=block;endFill=0;" parent="1" source="IvUGe0hoY3nlV3LCEhh_-12" target="IvUGe0hoY3nlV3LCEhh_-11" edge="1">
          <mxGeometry relative="1" as="geometry" />
        </mxCell>
        <mxCell id="IvUGe0hoY3nlV3LCEhh_-24" value="&amp;lt;&amp;lt;interface&amp;gt;&amp;gt;&lt;br&gt;MovementObserver" style="swimlane;fontStyle=0;childLayout=stackLayout;horizontal=1;startSize=30;horizontalStack=0;resizeParent=1;resizeParentMax=0;resizeLast=0;collapsible=1;marginBottom=0;whiteSpace=wrap;html=1;" parent="1" vertex="1">
          <mxGeometry x="-847" y="-840" width="225" height="60" as="geometry" />
        </mxCell>
        <mxCell id="IvUGe0hoY3nlV3LCEhh_-25" value="+ handleMovement(ImageView)" style="text;strokeColor=none;fillColor=none;align=left;verticalAlign=middle;spacingLeft=4;spacingRight=4;overflow=hidden;points=[[0,0.5],[1,0.5]];portConstraint=eastwest;rotatable=0;whiteSpace=wrap;html=1;" parent="IvUGe0hoY3nlV3LCEhh_-24" vertex="1">
          <mxGeometry y="30" width="225" height="30" as="geometry" />
        </mxCell>
        <mxCell id="IvUGe0hoY3nlV3LCEhh_-57" value="&lt;span style=&quot;font-weight: normal;&quot;&gt;MoveDownObserver&lt;/span&gt;" style="swimlane;fontStyle=1;align=center;verticalAlign=top;childLayout=stackLayout;horizontal=1;startSize=26;horizontalStack=0;resizeParent=1;resizeParentMax=0;resizeLast=0;collapsible=1;marginBottom=0;whiteSpace=wrap;html=1;" parent="1" vertex="1">
          <mxGeometry x="-1100" y="-916" width="190" height="86" as="geometry" />
        </mxCell>
        <mxCell id="IvUGe0hoY3nlV3LCEhh_-58" value="- moveDown: MovementStrategy" style="text;strokeColor=none;fillColor=none;align=left;verticalAlign=top;spacingLeft=4;spacingRight=4;overflow=hidden;rotatable=0;points=[[0,0.5],[1,0.5]];portConstraint=eastwest;whiteSpace=wrap;html=1;" parent="IvUGe0hoY3nlV3LCEhh_-57" vertex="1">
          <mxGeometry y="26" width="190" height="26" as="geometry" />
        </mxCell>
        <mxCell id="IvUGe0hoY3nlV3LCEhh_-59" value="" style="line;strokeWidth=1;fillColor=none;align=left;verticalAlign=middle;spacingTop=-1;spacingLeft=3;spacingRight=3;rotatable=0;labelPosition=right;points=[];portConstraint=eastwest;strokeColor=inherit;" parent="IvUGe0hoY3nlV3LCEhh_-57" vertex="1">
          <mxGeometry y="52" width="190" height="8" as="geometry" />
        </mxCell>
        <mxCell id="IvUGe0hoY3nlV3LCEhh_-60" value="+ handleMovement(ImageView):" style="text;strokeColor=none;fillColor=none;align=left;verticalAlign=top;spacingLeft=4;spacingRight=4;overflow=hidden;rotatable=0;points=[[0,0.5],[1,0.5]];portConstraint=eastwest;whiteSpace=wrap;html=1;" parent="IvUGe0hoY3nlV3LCEhh_-57" vertex="1">
          <mxGeometry y="60" width="190" height="26" as="geometry" />
        </mxCell>
        <mxCell id="IvUGe0hoY3nlV3LCEhh_-65" value="&lt;span style=&quot;font-weight: normal;&quot;&gt;MoveLeftObserver&lt;/span&gt;" style="swimlane;fontStyle=1;align=center;verticalAlign=top;childLayout=stackLayout;horizontal=1;startSize=26;horizontalStack=0;resizeParent=1;resizeParentMax=0;resizeLast=0;collapsible=1;marginBottom=0;whiteSpace=wrap;html=1;" parent="1" vertex="1">
          <mxGeometry x="-1100" y="-1027" width="190" height="86" as="geometry" />
        </mxCell>
        <mxCell id="IvUGe0hoY3nlV3LCEhh_-66" value="- moveLeft: MovementStrategy" style="text;strokeColor=none;fillColor=none;align=left;verticalAlign=top;spacingLeft=4;spacingRight=4;overflow=hidden;rotatable=0;points=[[0,0.5],[1,0.5]];portConstraint=eastwest;whiteSpace=wrap;html=1;" parent="IvUGe0hoY3nlV3LCEhh_-65" vertex="1">
          <mxGeometry y="26" width="190" height="26" as="geometry" />
        </mxCell>
        <mxCell id="IvUGe0hoY3nlV3LCEhh_-67" value="" style="line;strokeWidth=1;fillColor=none;align=left;verticalAlign=middle;spacingTop=-1;spacingLeft=3;spacingRight=3;rotatable=0;labelPosition=right;points=[];portConstraint=eastwest;strokeColor=inherit;" parent="IvUGe0hoY3nlV3LCEhh_-65" vertex="1">
          <mxGeometry y="52" width="190" height="8" as="geometry" />
        </mxCell>
        <mxCell id="IvUGe0hoY3nlV3LCEhh_-68" value="+ handleMovement(ImageView):" style="text;strokeColor=none;fillColor=none;align=left;verticalAlign=top;spacingLeft=4;spacingRight=4;overflow=hidden;rotatable=0;points=[[0,0.5],[1,0.5]];portConstraint=eastwest;whiteSpace=wrap;html=1;" parent="IvUGe0hoY3nlV3LCEhh_-65" vertex="1">
          <mxGeometry y="60" width="190" height="26" as="geometry" />
        </mxCell>
        <mxCell id="IvUGe0hoY3nlV3LCEhh_-77" style="edgeStyle=orthogonalEdgeStyle;rounded=0;orthogonalLoop=1;jettySize=auto;html=1;entryX=0.5;entryY=0;entryDx=0;entryDy=0;endArrow=block;endFill=1;" parent="1" source="IvUGe0hoY3nlV3LCEhh_-69" target="IvUGe0hoY3nlV3LCEhh_-20" edge="1">
          <mxGeometry relative="1" as="geometry" />
        </mxCell>
        <mxCell id="IvUGe0hoY3nlV3LCEhh_-80" style="edgeStyle=orthogonalEdgeStyle;rounded=0;orthogonalLoop=1;jettySize=auto;html=1;entryX=0.513;entryY=1.093;entryDx=0;entryDy=0;entryPerimeter=0;dashed=1;endArrow=block;endFill=0;" parent="1" source="IvUGe0hoY3nlV3LCEhh_-69" target="IvUGe0hoY3nlV3LCEhh_-25" edge="1">
          <mxGeometry relative="1" as="geometry">
            <mxPoint x="-730" y="-740" as="targetPoint" />
            <Array as="points">
              <mxPoint x="-1169" y="-1177" />
              <mxPoint x="-1169" y="-750" />
              <mxPoint x="-732" y="-750" />
            </Array>
          </mxGeometry>
        </mxCell>
        <mxCell id="IvUGe0hoY3nlV3LCEhh_-69" value="&lt;span style=&quot;font-weight: normal;&quot;&gt;MoveUpObserver&lt;/span&gt;" style="swimlane;fontStyle=1;align=center;verticalAlign=top;childLayout=stackLayout;horizontal=1;startSize=26;horizontalStack=0;resizeParent=1;resizeParentMax=0;resizeLast=0;collapsible=1;marginBottom=0;whiteSpace=wrap;html=1;" parent="1" vertex="1">
          <mxGeometry x="-1095" y="-1240" width="185" height="86" as="geometry" />
        </mxCell>
        <mxCell id="IvUGe0hoY3nlV3LCEhh_-70" value="- moveUp: MovementStrategy" style="text;strokeColor=none;fillColor=none;align=left;verticalAlign=top;spacingLeft=4;spacingRight=4;overflow=hidden;rotatable=0;points=[[0,0.5],[1,0.5]];portConstraint=eastwest;whiteSpace=wrap;html=1;" parent="IvUGe0hoY3nlV3LCEhh_-69" vertex="1">
          <mxGeometry y="26" width="185" height="26" as="geometry" />
        </mxCell>
        <mxCell id="IvUGe0hoY3nlV3LCEhh_-71" value="" style="line;strokeWidth=1;fillColor=none;align=left;verticalAlign=middle;spacingTop=-1;spacingLeft=3;spacingRight=3;rotatable=0;labelPosition=right;points=[];portConstraint=eastwest;strokeColor=inherit;" parent="IvUGe0hoY3nlV3LCEhh_-69" vertex="1">
          <mxGeometry y="52" width="185" height="8" as="geometry" />
        </mxCell>
        <mxCell id="IvUGe0hoY3nlV3LCEhh_-72" value="+ handleMovement(ImageView):" style="text;strokeColor=none;fillColor=none;align=left;verticalAlign=top;spacingLeft=4;spacingRight=4;overflow=hidden;rotatable=0;points=[[0,0.5],[1,0.5]];portConstraint=eastwest;whiteSpace=wrap;html=1;" parent="IvUGe0hoY3nlV3LCEhh_-69" vertex="1">
          <mxGeometry y="60" width="185" height="26" as="geometry" />
        </mxCell>
        <mxCell id="IvUGe0hoY3nlV3LCEhh_-74" style="edgeStyle=orthogonalEdgeStyle;rounded=0;orthogonalLoop=1;jettySize=auto;html=1;entryX=0.5;entryY=0;entryDx=0;entryDy=0;endArrow=block;endFill=1;" parent="1" source="IvUGe0hoY3nlV3LCEhh_-61" target="IvUGe0hoY3nlV3LCEhh_-17" edge="1">
          <mxGeometry relative="1" as="geometry" />
        </mxCell>
        <mxCell id="IvUGe0hoY3nlV3LCEhh_-61" value="&lt;span style=&quot;font-weight: normal;&quot;&gt;MoverRightObserver&lt;/span&gt;" style="swimlane;fontStyle=1;align=center;verticalAlign=top;childLayout=stackLayout;horizontal=1;startSize=26;horizontalStack=0;resizeParent=1;resizeParentMax=0;resizeLast=0;collapsible=1;marginBottom=0;whiteSpace=wrap;html=1;" parent="1" vertex="1">
          <mxGeometry x="-1100" y="-1134" width="190" height="86" as="geometry" />
        </mxCell>
        <mxCell id="IvUGe0hoY3nlV3LCEhh_-62" value="- moveRight: MovementStrategy" style="text;strokeColor=none;fillColor=none;align=left;verticalAlign=top;spacingLeft=4;spacingRight=4;overflow=hidden;rotatable=0;points=[[0,0.5],[1,0.5]];portConstraint=eastwest;whiteSpace=wrap;html=1;" parent="IvUGe0hoY3nlV3LCEhh_-61" vertex="1">
          <mxGeometry y="26" width="190" height="26" as="geometry" />
        </mxCell>
        <mxCell id="IvUGe0hoY3nlV3LCEhh_-63" value="" style="line;strokeWidth=1;fillColor=none;align=left;verticalAlign=middle;spacingTop=-1;spacingLeft=3;spacingRight=3;rotatable=0;labelPosition=right;points=[];portConstraint=eastwest;strokeColor=inherit;" parent="IvUGe0hoY3nlV3LCEhh_-61" vertex="1">
          <mxGeometry y="52" width="190" height="8" as="geometry" />
        </mxCell>
        <mxCell id="IvUGe0hoY3nlV3LCEhh_-64" value="+ handleMovement(ImageView):" style="text;strokeColor=none;fillColor=none;align=left;verticalAlign=top;spacingLeft=4;spacingRight=4;overflow=hidden;rotatable=0;points=[[0,0.5],[1,0.5]];portConstraint=eastwest;whiteSpace=wrap;html=1;" parent="IvUGe0hoY3nlV3LCEhh_-61" vertex="1">
          <mxGeometry y="60" width="190" height="26" as="geometry" />
        </mxCell>
        <mxCell id="IvUGe0hoY3nlV3LCEhh_-75" style="edgeStyle=orthogonalEdgeStyle;rounded=0;orthogonalLoop=1;jettySize=auto;html=1;entryX=0;entryY=0.273;entryDx=0;entryDy=0;entryPerimeter=0;endArrow=block;endFill=1;" parent="1" source="IvUGe0hoY3nlV3LCEhh_-65" target="IvUGe0hoY3nlV3LCEhh_-15" edge="1">
          <mxGeometry relative="1" as="geometry" />
        </mxCell>
        <mxCell id="IvUGe0hoY3nlV3LCEhh_-76" style="edgeStyle=orthogonalEdgeStyle;rounded=0;orthogonalLoop=1;jettySize=auto;html=1;entryX=-0.008;entryY=0.167;entryDx=0;entryDy=0;entryPerimeter=0;endArrow=block;endFill=1;" parent="1" source="IvUGe0hoY3nlV3LCEhh_-57" target="IvUGe0hoY3nlV3LCEhh_-13" edge="1">
          <mxGeometry relative="1" as="geometry" />
        </mxCell>
        <mxCell id="IvUGe0hoY3nlV3LCEhh_-78" style="edgeStyle=orthogonalEdgeStyle;rounded=0;orthogonalLoop=1;jettySize=auto;html=1;entryX=-0.006;entryY=0.053;entryDx=0;entryDy=0;entryPerimeter=0;dashed=1;endArrow=block;endFill=0;" parent="1" source="IvUGe0hoY3nlV3LCEhh_-61" target="IvUGe0hoY3nlV3LCEhh_-25" edge="1">
          <mxGeometry relative="1" as="geometry">
            <Array as="points">
              <mxPoint x="-1140" y="-1097" />
              <mxPoint x="-1140" y="-808" />
            </Array>
          </mxGeometry>
        </mxCell>
        <mxCell id="IvUGe0hoY3nlV3LCEhh_-79" style="edgeStyle=orthogonalEdgeStyle;rounded=0;orthogonalLoop=1;jettySize=auto;html=1;entryX=0.964;entryY=1;entryDx=0;entryDy=0;entryPerimeter=0;dashed=1;endArrow=block;endFill=0;" parent="1" source="IvUGe0hoY3nlV3LCEhh_-57" target="IvUGe0hoY3nlV3LCEhh_-25" edge="1">
          <mxGeometry relative="1" as="geometry" />
        </mxCell>
        <mxCell id="IvUGe0hoY3nlV3LCEhh_-82" style="edgeStyle=orthogonalEdgeStyle;rounded=0;orthogonalLoop=1;jettySize=auto;html=1;entryX=0;entryY=0.25;entryDx=0;entryDy=0;dashed=1;endArrow=block;endFill=0;" parent="1" source="IvUGe0hoY3nlV3LCEhh_-66" target="IvUGe0hoY3nlV3LCEhh_-24" edge="1">
          <mxGeometry relative="1" as="geometry">
            <mxPoint x="-870" y="-820" as="targetPoint" />
            <Array as="points">
              <mxPoint x="-869" y="-988" />
              <mxPoint x="-869" y="-825" />
            </Array>
          </mxGeometry>
        </mxCell>
        <mxCell id="IvUGe0hoY3nlV3LCEhh_-90" style="edgeStyle=orthogonalEdgeStyle;rounded=0;orthogonalLoop=1;jettySize=auto;html=1;entryX=0.5;entryY=0;entryDx=0;entryDy=0;startArrow=diamondThin;startFill=0;" parent="1" source="IvUGe0hoY3nlV3LCEhh_-83" target="IvUGe0hoY3nlV3LCEhh_-24" edge="1">
          <mxGeometry relative="1" as="geometry" />
        </mxCell>
        <mxCell id="IvUGe0hoY3nlV3LCEhh_-91" value="0..*" style="edgeLabel;html=1;align=center;verticalAlign=middle;resizable=0;points=[];" parent="IvUGe0hoY3nlV3LCEhh_-90" vertex="1" connectable="0">
          <mxGeometry x="0.6928" y="2" relative="1" as="geometry">
            <mxPoint x="5" y="8" as="offset" />
          </mxGeometry>
        </mxCell>
        <mxCell id="IvUGe0hoY3nlV3LCEhh_-92" value="observers" style="edgeLabel;html=1;align=center;verticalAlign=middle;resizable=0;points=[];" parent="IvUGe0hoY3nlV3LCEhh_-90" vertex="1" connectable="0">
          <mxGeometry x="0.0676" y="-4" relative="1" as="geometry">
            <mxPoint x="22" y="10" as="offset" />
          </mxGeometry>
        </mxCell>
        <mxCell id="IvUGe0hoY3nlV3LCEhh_-83" value="&lt;span style=&quot;font-weight: normal;&quot;&gt;MovementSubject&lt;/span&gt;" style="swimlane;fontStyle=1;align=center;verticalAlign=top;childLayout=stackLayout;horizontal=1;startSize=26;horizontalStack=0;resizeParent=1;resizeParentMax=0;resizeLast=0;collapsible=1;marginBottom=0;whiteSpace=wrap;html=1;" parent="1" vertex="1">
          <mxGeometry x="-550" y="-846" width="250" height="134" as="geometry" />
        </mxCell>
        <mxCell id="IvUGe0hoY3nlV3LCEhh_-84" value="- observers: MovementObservers[]" style="text;strokeColor=none;fillColor=none;align=left;verticalAlign=top;spacingLeft=4;spacingRight=4;overflow=hidden;rotatable=0;points=[[0,0.5],[1,0.5]];portConstraint=eastwest;whiteSpace=wrap;html=1;" parent="IvUGe0hoY3nlV3LCEhh_-83" vertex="1">
          <mxGeometry y="26" width="250" height="22" as="geometry" />
        </mxCell>
        <mxCell id="IvUGe0hoY3nlV3LCEhh_-85" value="" style="line;strokeWidth=1;fillColor=none;align=left;verticalAlign=middle;spacingTop=-1;spacingLeft=3;spacingRight=3;rotatable=0;labelPosition=right;points=[];portConstraint=eastwest;strokeColor=inherit;" parent="IvUGe0hoY3nlV3LCEhh_-83" vertex="1">
          <mxGeometry y="48" width="250" height="8" as="geometry" />
        </mxCell>
        <mxCell id="IvUGe0hoY3nlV3LCEhh_-86" value="+ addObserver(MovementObserver)" style="text;strokeColor=none;fillColor=none;align=left;verticalAlign=top;spacingLeft=4;spacingRight=4;overflow=hidden;rotatable=0;points=[[0,0.5],[1,0.5]];portConstraint=eastwest;whiteSpace=wrap;html=1;" parent="IvUGe0hoY3nlV3LCEhh_-83" vertex="1">
          <mxGeometry y="56" width="250" height="26" as="geometry" />
        </mxCell>
        <mxCell id="IvUGe0hoY3nlV3LCEhh_-88" value="+ removeObserver(MovementObserver)" style="text;strokeColor=none;fillColor=none;align=left;verticalAlign=top;spacingLeft=4;spacingRight=4;overflow=hidden;rotatable=0;points=[[0,0.5],[1,0.5]];portConstraint=eastwest;whiteSpace=wrap;html=1;" parent="IvUGe0hoY3nlV3LCEhh_-83" vertex="1">
          <mxGeometry y="82" width="250" height="26" as="geometry" />
        </mxCell>
        <mxCell id="IvUGe0hoY3nlV3LCEhh_-89" value="+ notifyObservers(ImageView)" style="text;strokeColor=none;fillColor=none;align=left;verticalAlign=top;spacingLeft=4;spacingRight=4;overflow=hidden;rotatable=0;points=[[0,0.5],[1,0.5]];portConstraint=eastwest;whiteSpace=wrap;html=1;" parent="IvUGe0hoY3nlV3LCEhh_-83" vertex="1">
          <mxGeometry y="108" width="250" height="26" as="geometry" />
        </mxCell>
        <mxCell id="IvUGe0hoY3nlV3LCEhh_-106" style="edgeStyle=orthogonalEdgeStyle;rounded=0;orthogonalLoop=1;jettySize=auto;html=1;entryX=0;entryY=0.5;entryDx=0;entryDy=0;startArrow=diamond;startFill=0;" parent="1" source="IvUGe0hoY3nlV3LCEhh_-96" target="IvUGe0hoY3nlV3LCEhh_-101" edge="1">
          <mxGeometry relative="1" as="geometry" />
        </mxCell>
        <mxCell id="IvUGe0hoY3nlV3LCEhh_-107" value="0..*" style="edgeLabel;html=1;align=center;verticalAlign=middle;resizable=0;points=[];" parent="IvUGe0hoY3nlV3LCEhh_-106" vertex="1" connectable="0">
          <mxGeometry x="0.6333" y="4" relative="1" as="geometry">
            <mxPoint x="5" y="-9" as="offset" />
          </mxGeometry>
        </mxCell>
        <mxCell id="IvUGe0hoY3nlV3LCEhh_-96" value="&lt;span style=&quot;font-weight: normal;&quot;&gt;Leaderboard&lt;/span&gt;" style="swimlane;fontStyle=1;align=center;verticalAlign=top;childLayout=stackLayout;horizontal=1;startSize=26;horizontalStack=0;resizeParent=1;resizeParentMax=0;resizeLast=0;collapsible=1;marginBottom=0;whiteSpace=wrap;html=1;" parent="1" vertex="1">
          <mxGeometry x="-1220" y="-712" width="270" height="346" as="geometry">
            <mxRectangle x="-1220" y="-712" width="110" height="30" as="alternateBounds" />
          </mxGeometry>
        </mxCell>
        <mxCell id="IvUGe0hoY3nlV3LCEhh_-97" value="- entries: LeaderboardEntry[]" style="text;strokeColor=none;fillColor=none;align=left;verticalAlign=top;spacingLeft=4;spacingRight=4;overflow=hidden;rotatable=0;points=[[0,0.5],[1,0.5]];portConstraint=eastwest;whiteSpace=wrap;html=1;" parent="IvUGe0hoY3nlV3LCEhh_-96" vertex="1">
          <mxGeometry y="26" width="270" height="26" as="geometry" />
        </mxCell>
        <mxCell id="IvUGe0hoY3nlV3LCEhh_-105" value="- mostRecentEntry: LeaderboardEntry" style="text;strokeColor=none;fillColor=none;align=left;verticalAlign=top;spacingLeft=4;spacingRight=4;overflow=hidden;rotatable=0;points=[[0,0.5],[1,0.5]];portConstraint=eastwest;whiteSpace=wrap;html=1;" parent="IvUGe0hoY3nlV3LCEhh_-96" vertex="1">
          <mxGeometry y="52" width="270" height="26" as="geometry" />
        </mxCell>
        <mxCell id="IvUGe0hoY3nlV3LCEhh_-117" value="- &lt;u&gt;instance&lt;/u&gt;: Leaderboard" style="text;strokeColor=none;fillColor=none;align=left;verticalAlign=top;spacingLeft=4;spacingRight=4;overflow=hidden;rotatable=0;points=[[0,0.5],[1,0.5]];portConstraint=eastwest;whiteSpace=wrap;html=1;" parent="IvUGe0hoY3nlV3LCEhh_-96" vertex="1">
          <mxGeometry y="78" width="270" height="26" as="geometry" />
        </mxCell>
        <mxCell id="IvUGe0hoY3nlV3LCEhh_-98" value="" style="line;strokeWidth=1;fillColor=none;align=left;verticalAlign=middle;spacingTop=-1;spacingLeft=3;spacingRight=3;rotatable=0;labelPosition=right;points=[];portConstraint=eastwest;strokeColor=inherit;" parent="IvUGe0hoY3nlV3LCEhh_-96" vertex="1">
          <mxGeometry y="104" width="270" height="8" as="geometry" />
        </mxCell>
        <mxCell id="IvUGe0hoY3nlV3LCEhh_-99" value="- LeaderBoard()" style="text;strokeColor=none;fillColor=none;align=left;verticalAlign=top;spacingLeft=4;spacingRight=4;overflow=hidden;rotatable=0;points=[[0,0.5],[1,0.5]];portConstraint=eastwest;whiteSpace=wrap;html=1;" parent="IvUGe0hoY3nlV3LCEhh_-96" vertex="1">
          <mxGeometry y="112" width="270" height="26" as="geometry" />
        </mxCell>
        <mxCell id="IvUGe0hoY3nlV3LCEhh_-116" value="+ &lt;u&gt;getInstance()&lt;/u&gt;: Leaderboard" style="text;strokeColor=none;fillColor=none;align=left;verticalAlign=top;spacingLeft=4;spacingRight=4;overflow=hidden;rotatable=0;points=[[0,0.5],[1,0.5]];portConstraint=eastwest;whiteSpace=wrap;html=1;" parent="IvUGe0hoY3nlV3LCEhh_-96" vertex="1">
          <mxGeometry y="138" width="270" height="26" as="geometry" />
        </mxCell>
        <mxCell id="IvUGe0hoY3nlV3LCEhh_-115" value="+ getMostRecentEntry(): LeaderboardEntry" style="text;strokeColor=none;fillColor=none;align=left;verticalAlign=top;spacingLeft=4;spacingRight=4;overflow=hidden;rotatable=0;points=[[0,0.5],[1,0.5]];portConstraint=eastwest;whiteSpace=wrap;html=1;" parent="IvUGe0hoY3nlV3LCEhh_-96" vertex="1">
          <mxGeometry y="164" width="270" height="26" as="geometry" />
        </mxCell>
        <mxCell id="IvUGe0hoY3nlV3LCEhh_-109" value="+ addEntry(LeaderboardEntry)" style="text;strokeColor=none;fillColor=none;align=left;verticalAlign=top;spacingLeft=4;spacingRight=4;overflow=hidden;rotatable=0;points=[[0,0.5],[1,0.5]];portConstraint=eastwest;whiteSpace=wrap;html=1;" parent="IvUGe0hoY3nlV3LCEhh_-96" vertex="1">
          <mxGeometry y="190" width="270" height="26" as="geometry" />
        </mxCell>
        <mxCell id="IvUGe0hoY3nlV3LCEhh_-110" value="+ clearEntries()" style="text;strokeColor=none;fillColor=none;align=left;verticalAlign=top;spacingLeft=4;spacingRight=4;overflow=hidden;rotatable=0;points=[[0,0.5],[1,0.5]];portConstraint=eastwest;whiteSpace=wrap;html=1;" parent="IvUGe0hoY3nlV3LCEhh_-96" vertex="1">
          <mxGeometry y="216" width="270" height="26" as="geometry" />
        </mxCell>
        <mxCell id="IvUGe0hoY3nlV3LCEhh_-112" value="+ displayEntries()" style="text;strokeColor=none;fillColor=none;align=left;verticalAlign=top;spacingLeft=4;spacingRight=4;overflow=hidden;rotatable=0;points=[[0,0.5],[1,0.5]];portConstraint=eastwest;whiteSpace=wrap;html=1;" parent="IvUGe0hoY3nlV3LCEhh_-96" vertex="1">
          <mxGeometry y="242" width="270" height="26" as="geometry" />
        </mxCell>
        <mxCell id="IvUGe0hoY3nlV3LCEhh_-111" value="+ sortEntiresByScore()" style="text;strokeColor=none;fillColor=none;align=left;verticalAlign=top;spacingLeft=4;spacingRight=4;overflow=hidden;rotatable=0;points=[[0,0.5],[1,0.5]];portConstraint=eastwest;whiteSpace=wrap;html=1;" parent="IvUGe0hoY3nlV3LCEhh_-96" vertex="1">
          <mxGeometry y="268" width="270" height="26" as="geometry" />
        </mxCell>
        <mxCell id="IvUGe0hoY3nlV3LCEhh_-113" value="+ removeDuplicates()" style="text;strokeColor=none;fillColor=none;align=left;verticalAlign=top;spacingLeft=4;spacingRight=4;overflow=hidden;rotatable=0;points=[[0,0.5],[1,0.5]];portConstraint=eastwest;whiteSpace=wrap;html=1;" parent="IvUGe0hoY3nlV3LCEhh_-96" vertex="1">
          <mxGeometry y="294" width="270" height="26" as="geometry" />
        </mxCell>
        <mxCell id="IvUGe0hoY3nlV3LCEhh_-114" value="- compareByScore()" style="text;strokeColor=none;fillColor=none;align=left;verticalAlign=top;spacingLeft=4;spacingRight=4;overflow=hidden;rotatable=0;points=[[0,0.5],[1,0.5]];portConstraint=eastwest;whiteSpace=wrap;html=1;" parent="IvUGe0hoY3nlV3LCEhh_-96" vertex="1">
          <mxGeometry y="320" width="270" height="26" as="geometry" />
        </mxCell>
        <mxCell id="IvUGe0hoY3nlV3LCEhh_-100" value="&lt;span style=&quot;font-weight: normal;&quot;&gt;LeaderboardEntry&lt;/span&gt;" style="swimlane;fontStyle=1;align=center;verticalAlign=top;childLayout=stackLayout;horizontal=1;startSize=26;horizontalStack=0;resizeParent=1;resizeParentMax=0;resizeLast=0;collapsible=1;marginBottom=0;whiteSpace=wrap;html=1;" parent="1" vertex="1">
          <mxGeometry x="-870" y="-699" width="160" height="134" as="geometry" />
        </mxCell>
        <mxCell id="IvUGe0hoY3nlV3LCEhh_-101" value="- redId: String&lt;br&gt;- player: String&lt;br&gt;- score: int&lt;br&gt;date: String&lt;br&gt;- time: String" style="text;strokeColor=none;fillColor=none;align=left;verticalAlign=top;spacingLeft=4;spacingRight=4;overflow=hidden;rotatable=0;points=[[0,0.5],[1,0.5]];portConstraint=eastwest;whiteSpace=wrap;html=1;" parent="IvUGe0hoY3nlV3LCEhh_-100" vertex="1">
          <mxGeometry y="26" width="160" height="74" as="geometry" />
        </mxCell>
        <mxCell id="IvUGe0hoY3nlV3LCEhh_-102" value="" style="line;strokeWidth=1;fillColor=none;align=left;verticalAlign=middle;spacingTop=-1;spacingLeft=3;spacingRight=3;rotatable=0;labelPosition=right;points=[];portConstraint=eastwest;strokeColor=inherit;" parent="IvUGe0hoY3nlV3LCEhh_-100" vertex="1">
          <mxGeometry y="100" width="160" height="8" as="geometry" />
        </mxCell>
        <mxCell id="IvUGe0hoY3nlV3LCEhh_-103" value="+ add(): None" style="text;strokeColor=none;fillColor=none;align=left;verticalAlign=top;spacingLeft=4;spacingRight=4;overflow=hidden;rotatable=0;points=[[0,0.5],[1,0.5]];portConstraint=eastwest;whiteSpace=wrap;html=1;" parent="IvUGe0hoY3nlV3LCEhh_-100" vertex="1">
          <mxGeometry y="108" width="160" height="26" as="geometry" />
        </mxCell>
        <mxCell id="IvUGe0hoY3nlV3LCEhh_-108" value="entries" style="text;html=1;align=center;verticalAlign=middle;resizable=0;points=[];autosize=1;strokeColor=none;fillColor=none;" parent="1" vertex="1">
          <mxGeometry x="-920" y="-600" width="60" height="30" as="geometry" />
        </mxCell>
        <mxCell id="IvUGe0hoY3nlV3LCEhh_-143" style="edgeStyle=orthogonalEdgeStyle;rounded=0;orthogonalLoop=1;jettySize=auto;html=1;entryX=1;entryY=0.5;entryDx=0;entryDy=0;exitX=1;exitY=0.5;exitDx=0;exitDy=0;startArrow=diamondThin;startFill=0;" parent="1" source="IvUGe0hoY3nlV3LCEhh_-123" target="IvUGe0hoY3nlV3LCEhh_-10" edge="1">
          <mxGeometry relative="1" as="geometry">
            <mxPoint x="-260" y="-960" as="targetPoint" />
            <mxPoint x="-370" y="-383" as="sourcePoint" />
            <Array as="points">
              <mxPoint x="-360" y="-383" />
              <mxPoint x="-260" y="-383" />
              <mxPoint x="-260" y="-960" />
            </Array>
          </mxGeometry>
        </mxCell>
        <mxCell id="IvUGe0hoY3nlV3LCEhh_-118" value="&lt;span style=&quot;font-weight: normal;&quot;&gt;Player&lt;/span&gt;" style="swimlane;fontStyle=1;align=center;verticalAlign=top;childLayout=stackLayout;horizontal=1;startSize=26;horizontalStack=0;resizeParent=1;resizeParentMax=0;resizeLast=0;collapsible=1;marginBottom=0;whiteSpace=wrap;html=1;" parent="1" vertex="1">
          <mxGeometry x="-650" y="-660" width="290" height="554" as="geometry">
            <mxRectangle x="-650" y="-660" width="70" height="30" as="alternateBounds" />
          </mxGeometry>
        </mxCell>
        <mxCell id="IvUGe0hoY3nlV3LCEhh_-119" value="- playerNameValue: String" style="text;strokeColor=none;fillColor=none;align=left;verticalAlign=top;spacingLeft=4;spacingRight=4;overflow=hidden;rotatable=0;points=[[0,0.5],[1,0.5]];portConstraint=eastwest;whiteSpace=wrap;html=1;" parent="IvUGe0hoY3nlV3LCEhh_-118" vertex="1">
          <mxGeometry y="26" width="290" height="26" as="geometry" />
        </mxCell>
        <mxCell id="IvUGe0hoY3nlV3LCEhh_-122" value="- Double: GameDifficultyMultiplier" style="text;strokeColor=none;fillColor=none;align=left;verticalAlign=top;spacingLeft=4;spacingRight=4;overflow=hidden;rotatable=0;points=[[0,0.5],[1,0.5]];portConstraint=eastwest;whiteSpace=wrap;html=1;" parent="IvUGe0hoY3nlV3LCEhh_-118" vertex="1">
          <mxGeometry y="52" width="290" height="26" as="geometry" />
        </mxCell>
        <mxCell id="IvUGe0hoY3nlV3LCEhh_-125" value="- chosenDifficulty: String" style="text;strokeColor=none;fillColor=none;align=left;verticalAlign=top;spacingLeft=4;spacingRight=4;overflow=hidden;rotatable=0;points=[[0,0.5],[1,0.5]];portConstraint=eastwest;whiteSpace=wrap;html=1;" parent="IvUGe0hoY3nlV3LCEhh_-118" vertex="1">
          <mxGeometry y="78" width="290" height="26" as="geometry" />
        </mxCell>
        <mxCell id="IvUGe0hoY3nlV3LCEhh_-126" value="- character: String" style="text;strokeColor=none;fillColor=none;align=left;verticalAlign=top;spacingLeft=4;spacingRight=4;overflow=hidden;rotatable=0;points=[[0,0.5],[1,0.5]];portConstraint=eastwest;whiteSpace=wrap;html=1;" parent="IvUGe0hoY3nlV3LCEhh_-118" vertex="1">
          <mxGeometry y="104" width="290" height="26" as="geometry" />
        </mxCell>
        <mxCell id="IvUGe0hoY3nlV3LCEhh_-130" value="- int: baseHp" style="text;strokeColor=none;fillColor=none;align=left;verticalAlign=top;spacingLeft=4;spacingRight=4;overflow=hidden;rotatable=0;points=[[0,0.5],[1,0.5]];portConstraint=eastwest;whiteSpace=wrap;html=1;" parent="IvUGe0hoY3nlV3LCEhh_-118" vertex="1">
          <mxGeometry y="130" width="290" height="26" as="geometry" />
        </mxCell>
        <mxCell id="IvUGe0hoY3nlV3LCEhh_-129" value="- double: hp" style="text;strokeColor=none;fillColor=none;align=left;verticalAlign=top;spacingLeft=4;spacingRight=4;overflow=hidden;rotatable=0;points=[[0,0.5],[1,0.5]];portConstraint=eastwest;whiteSpace=wrap;html=1;" parent="IvUGe0hoY3nlV3LCEhh_-118" vertex="1">
          <mxGeometry y="156" width="290" height="26" as="geometry" />
        </mxCell>
        <mxCell id="IvUGe0hoY3nlV3LCEhh_-128" value="- gameStart: Timer" style="text;strokeColor=none;fillColor=none;align=left;verticalAlign=top;spacingLeft=4;spacingRight=4;overflow=hidden;rotatable=0;points=[[0,0.5],[1,0.5]];portConstraint=eastwest;whiteSpace=wrap;html=1;" parent="IvUGe0hoY3nlV3LCEhh_-118" vertex="1">
          <mxGeometry y="182" width="290" height="26" as="geometry" />
        </mxCell>
        <mxCell id="IvUGe0hoY3nlV3LCEhh_-127" value="- long: startTime" style="text;strokeColor=none;fillColor=none;align=left;verticalAlign=top;spacingLeft=4;spacingRight=4;overflow=hidden;rotatable=0;points=[[0,0.5],[1,0.5]];portConstraint=eastwest;whiteSpace=wrap;html=1;" parent="IvUGe0hoY3nlV3LCEhh_-118" vertex="1">
          <mxGeometry y="208" width="290" height="26" as="geometry" />
        </mxCell>
        <mxCell id="IvUGe0hoY3nlV3LCEhh_-124" value="- movementStrategy: movementStrategy" style="text;strokeColor=none;fillColor=none;align=left;verticalAlign=top;spacingLeft=4;spacingRight=4;overflow=hidden;rotatable=0;points=[[0,0.5],[1,0.5]];portConstraint=eastwest;whiteSpace=wrap;html=1;" parent="IvUGe0hoY3nlV3LCEhh_-118" vertex="1">
          <mxGeometry y="234" width="290" height="26" as="geometry" />
        </mxCell>
        <mxCell id="IvUGe0hoY3nlV3LCEhh_-123" value="-&amp;nbsp;&lt;u&gt;instance&lt;/u&gt;: Player" style="text;strokeColor=none;fillColor=none;align=left;verticalAlign=top;spacingLeft=4;spacingRight=4;overflow=hidden;rotatable=0;points=[[0,0.5],[1,0.5]];portConstraint=eastwest;whiteSpace=wrap;html=1;" parent="IvUGe0hoY3nlV3LCEhh_-118" vertex="1">
          <mxGeometry y="260" width="290" height="26" as="geometry" />
        </mxCell>
        <mxCell id="IvUGe0hoY3nlV3LCEhh_-120" value="" style="line;strokeWidth=1;fillColor=none;align=left;verticalAlign=middle;spacingTop=-1;spacingLeft=3;spacingRight=3;rotatable=0;labelPosition=right;points=[];portConstraint=eastwest;strokeColor=inherit;" parent="IvUGe0hoY3nlV3LCEhh_-118" vertex="1">
          <mxGeometry y="286" width="290" height="8" as="geometry" />
        </mxCell>
        <mxCell id="IvUGe0hoY3nlV3LCEhh_-121" value="- Player()" style="text;strokeColor=none;fillColor=none;align=left;verticalAlign=top;spacingLeft=4;spacingRight=4;overflow=hidden;rotatable=0;points=[[0,0.5],[1,0.5]];portConstraint=eastwest;whiteSpace=wrap;html=1;" parent="IvUGe0hoY3nlV3LCEhh_-118" vertex="1">
          <mxGeometry y="294" width="290" height="26" as="geometry" />
        </mxCell>
        <mxCell id="IvUGe0hoY3nlV3LCEhh_-131" value="+ &lt;u&gt;getInstance&lt;/u&gt;(): Player" style="text;strokeColor=none;fillColor=none;align=left;verticalAlign=top;spacingLeft=4;spacingRight=4;overflow=hidden;rotatable=0;points=[[0,0.5],[1,0.5]];portConstraint=eastwest;whiteSpace=wrap;html=1;" parent="IvUGe0hoY3nlV3LCEhh_-118" vertex="1">
          <mxGeometry y="320" width="290" height="26" as="geometry" />
        </mxCell>
        <mxCell id="IvUGe0hoY3nlV3LCEhh_-132" value="# Player(Parcel)" style="text;strokeColor=none;fillColor=none;align=left;verticalAlign=top;spacingLeft=4;spacingRight=4;overflow=hidden;rotatable=0;points=[[0,0.5],[1,0.5]];portConstraint=eastwest;whiteSpace=wrap;html=1;" parent="IvUGe0hoY3nlV3LCEhh_-118" vertex="1">
          <mxGeometry y="346" width="290" height="26" as="geometry" />
        </mxCell>
        <mxCell id="IvUGe0hoY3nlV3LCEhh_-138" value="+ describeContents()" style="text;strokeColor=none;fillColor=none;align=left;verticalAlign=top;spacingLeft=4;spacingRight=4;overflow=hidden;rotatable=0;points=[[0,0.5],[1,0.5]];portConstraint=eastwest;whiteSpace=wrap;html=1;" parent="IvUGe0hoY3nlV3LCEhh_-118" vertex="1">
          <mxGeometry y="372" width="290" height="26" as="geometry" />
        </mxCell>
        <mxCell id="IvUGe0hoY3nlV3LCEhh_-136" value="+ difficultyCheck(RadioGroup, Player)" style="text;strokeColor=none;fillColor=none;align=left;verticalAlign=top;spacingLeft=4;spacingRight=4;overflow=hidden;rotatable=0;points=[[0,0.5],[1,0.5]];portConstraint=eastwest;whiteSpace=wrap;html=1;" parent="IvUGe0hoY3nlV3LCEhh_-118" vertex="1">
          <mxGeometry y="398" width="290" height="26" as="geometry" />
        </mxCell>
        <mxCell id="IvUGe0hoY3nlV3LCEhh_-139" value="+ characterCheck(RadioGroup, Player)" style="text;strokeColor=none;fillColor=none;align=left;verticalAlign=top;spacingLeft=4;spacingRight=4;overflow=hidden;rotatable=0;points=[[0,0.5],[1,0.5]];portConstraint=eastwest;whiteSpace=wrap;html=1;" parent="IvUGe0hoY3nlV3LCEhh_-118" vertex="1">
          <mxGeometry y="424" width="290" height="26" as="geometry" />
        </mxCell>
        <mxCell id="IvUGe0hoY3nlV3LCEhh_-141" value="+ setMovementStrategy(MovementStrategy)" style="text;strokeColor=none;fillColor=none;align=left;verticalAlign=top;spacingLeft=4;spacingRight=4;overflow=hidden;rotatable=0;points=[[0,0.5],[1,0.5]];portConstraint=eastwest;whiteSpace=wrap;html=1;" parent="IvUGe0hoY3nlV3LCEhh_-118" vertex="1">
          <mxGeometry y="450" width="290" height="26" as="geometry" />
        </mxCell>
        <mxCell id="IvUGe0hoY3nlV3LCEhh_-142" value="+ getMovementStrategy(): MovementStrategy" style="text;strokeColor=none;fillColor=none;align=left;verticalAlign=top;spacingLeft=4;spacingRight=4;overflow=hidden;rotatable=0;points=[[0,0.5],[1,0.5]];portConstraint=eastwest;whiteSpace=wrap;html=1;" parent="IvUGe0hoY3nlV3LCEhh_-118" vertex="1">
          <mxGeometry y="476" width="290" height="26" as="geometry" />
        </mxCell>
        <mxCell id="IvUGe0hoY3nlV3LCEhh_-135" value="+ setMultiplier(String)" style="text;strokeColor=none;fillColor=none;align=left;verticalAlign=top;spacingLeft=4;spacingRight=4;overflow=hidden;rotatable=0;points=[[0,0.5],[1,0.5]];portConstraint=eastwest;whiteSpace=wrap;html=1;" parent="IvUGe0hoY3nlV3LCEhh_-118" vertex="1">
          <mxGeometry y="502" width="290" height="26" as="geometry" />
        </mxCell>
        <mxCell id="IvUGe0hoY3nlV3LCEhh_-133" value="+ move(ImageView)" style="text;strokeColor=none;fillColor=none;align=left;verticalAlign=top;spacingLeft=4;spacingRight=4;overflow=hidden;rotatable=0;points=[[0,0.5],[1,0.5]];portConstraint=eastwest;whiteSpace=wrap;html=1;" parent="IvUGe0hoY3nlV3LCEhh_-118" vertex="1">
          <mxGeometry y="528" width="290" height="26" as="geometry" />
        </mxCell>
        <mxCell id="IvUGe0hoY3nlV3LCEhh_-140" style="edgeStyle=orthogonalEdgeStyle;rounded=0;orthogonalLoop=1;jettySize=auto;html=1;entryX=0;entryY=0.5;entryDx=0;entryDy=0;startArrow=diamondThin;startFill=0;" parent="IvUGe0hoY3nlV3LCEhh_-118" source="IvUGe0hoY3nlV3LCEhh_-118" target="IvUGe0hoY3nlV3LCEhh_-130" edge="1">
          <mxGeometry relative="1" as="geometry" />
        </mxCell>
        <mxCell id="-0QeKo9lLJaK8YBAIVfO-3" value="&lt;span style=&quot;font-weight: normal;&quot;&gt;EndScreen&lt;/span&gt;" style="swimlane;fontStyle=1;align=center;verticalAlign=top;childLayout=stackLayout;horizontal=1;startSize=30;horizontalStack=0;resizeParent=1;resizeParentMax=0;resizeLast=0;collapsible=1;marginBottom=0;whiteSpace=wrap;html=1;" parent="1" vertex="1">
          <mxGeometry x="-1360" y="-860" width="160" height="30" as="geometry">
            <mxRectangle x="-1360" y="-860" width="100" height="30" as="alternateBounds" />
          </mxGeometry>
        </mxCell>
        <mxCell id="-0QeKo9lLJaK8YBAIVfO-10" value="&lt;font style=&quot;font-size: 10px;&quot;&gt;+ onCreate(savedInstanceState: Bundle): void&lt;/font&gt;" style="rounded=0;whiteSpace=wrap;html=1;align=left;" parent="1" vertex="1">
          <mxGeometry x="-1360" y="-830" width="160" height="30" as="geometry" />
        </mxCell>
        <mxCell id="-0QeKo9lLJaK8YBAIVfO-11" value="" style="endArrow=none;dashed=1;html=1;rounded=0;entryX=0.5;entryY=1;entryDx=0;entryDy=0;" parent="1" target="-0QeKo9lLJaK8YBAIVfO-10" edge="1">
          <mxGeometry width="50" height="50" relative="1" as="geometry">
            <mxPoint x="-1280" y="-560" as="sourcePoint" />
            <mxPoint x="-1140" y="-640" as="targetPoint" />
          </mxGeometry>
        </mxCell>
        <mxCell id="-0QeKo9lLJaK8YBAIVfO-12" value="" style="endArrow=block;dashed=1;html=1;rounded=0;entryX=0;entryY=0.5;entryDx=0;entryDy=0;startArrow=none;startFill=0;endFill=0;" parent="1" target="IvUGe0hoY3nlV3LCEhh_-116" edge="1">
          <mxGeometry width="50" height="50" relative="1" as="geometry">
            <mxPoint x="-1280" y="-560" as="sourcePoint" />
            <mxPoint x="-1140" y="-640" as="targetPoint" />
          </mxGeometry>
        </mxCell>
        <mxCell id="-0QeKo9lLJaK8YBAIVfO-13" value="" style="endArrow=classic;html=1;rounded=0;exitX=1;exitY=0;exitDx=0;exitDy=0;entryX=0.5;entryY=0;entryDx=0;entryDy=0;" parent="1" source="-0QeKo9lLJaK8YBAIVfO-10" target="IvUGe0hoY3nlV3LCEhh_-100" edge="1">
          <mxGeometry width="50" height="50" relative="1" as="geometry">
            <mxPoint x="-910" y="-580" as="sourcePoint" />
            <mxPoint x="-860" y="-630" as="targetPoint" />
            <Array as="points">
              <mxPoint x="-1100" y="-830" />
              <mxPoint x="-1100" y="-730" />
              <mxPoint x="-790" y="-730" />
            </Array>
          </mxGeometry>
        </mxCell>
        <mxCell id="-0QeKo9lLJaK8YBAIVfO-32" value="" style="edgeStyle=orthogonalEdgeStyle;rounded=0;orthogonalLoop=1;jettySize=auto;html=1;" parent="1" source="-0QeKo9lLJaK8YBAIVfO-14" edge="1">
          <mxGeometry relative="1" as="geometry">
            <mxPoint x="-650" y="-410" as="targetPoint" />
          </mxGeometry>
        </mxCell>
        <mxCell id="-0QeKo9lLJaK8YBAIVfO-14" value="&lt;span style=&quot;font-weight: normal;&quot;&gt;Room1&lt;/span&gt;" style="swimlane;fontStyle=1;align=center;verticalAlign=top;childLayout=stackLayout;horizontal=1;startSize=30;horizontalStack=0;resizeParent=1;resizeParentMax=0;resizeLast=0;collapsible=1;marginBottom=0;whiteSpace=wrap;html=1;" parent="1" vertex="1">
          <mxGeometry x="-905" y="-460" width="198" height="70" as="geometry" />
        </mxCell>
        <mxCell id="-0QeKo9lLJaK8YBAIVfO-31" value="&lt;div&gt;&lt;font style=&quot;font-size: 10px;&quot;&gt;+ onCreate(Bundle savedInstanceState)&lt;/font&gt;&lt;/div&gt;&lt;div&gt;+ teleport()&lt;/div&gt;" style="text;html=1;align=left;verticalAlign=middle;resizable=0;points=[];autosize=1;strokeColor=default;fillColor=none;" parent="-0QeKo9lLJaK8YBAIVfO-14" vertex="1">
          <mxGeometry y="30" width="198" height="40" as="geometry" />
        </mxCell>
        <mxCell id="-0QeKo9lLJaK8YBAIVfO-35" value="&lt;span style=&quot;font-weight: normal;&quot;&gt;Room2&lt;/span&gt;" style="swimlane;fontStyle=1;align=center;verticalAlign=top;childLayout=stackLayout;horizontal=1;startSize=30;horizontalStack=0;resizeParent=1;resizeParentMax=0;resizeLast=0;collapsible=1;marginBottom=0;whiteSpace=wrap;html=1;" parent="1" vertex="1">
          <mxGeometry x="-905" y="-360" width="198" height="70" as="geometry" />
        </mxCell>
        <mxCell id="-0QeKo9lLJaK8YBAIVfO-36" value="&lt;div&gt;&lt;font style=&quot;font-size: 10px;&quot;&gt;+ onCreate(Bundle savedInstanceState)&lt;/font&gt;&lt;/div&gt;&lt;div&gt;+ teleport()&lt;/div&gt;" style="text;html=1;align=left;verticalAlign=middle;resizable=0;points=[];autosize=1;strokeColor=default;fillColor=none;" parent="-0QeKo9lLJaK8YBAIVfO-35" vertex="1">
          <mxGeometry y="30" width="198" height="40" as="geometry" />
        </mxCell>
        <mxCell id="-0QeKo9lLJaK8YBAIVfO-37" value="" style="edgeStyle=orthogonalEdgeStyle;rounded=0;orthogonalLoop=1;jettySize=auto;html=1;entryX=0.5;entryY=0;entryDx=0;entryDy=0;dashed=1;endArrow=block;endFill=0;" parent="1" source="-0QeKo9lLJaK8YBAIVfO-36" target="-0QeKo9lLJaK8YBAIVfO-39" edge="1">
          <mxGeometry relative="1" as="geometry" />
        </mxCell>
        <mxCell id="-0QeKo9lLJaK8YBAIVfO-38" value="" style="endArrow=block;dashed=1;html=1;rounded=0;exitX=0.499;exitY=1.036;exitDx=0;exitDy=0;exitPerimeter=0;entryX=0.5;entryY=0;entryDx=0;entryDy=0;endFill=0;" parent="1" source="-0QeKo9lLJaK8YBAIVfO-31" target="-0QeKo9lLJaK8YBAIVfO-35" edge="1">
          <mxGeometry width="50" height="50" relative="1" as="geometry">
            <mxPoint x="-620" y="-530" as="sourcePoint" />
            <mxPoint x="-570" y="-580" as="targetPoint" />
          </mxGeometry>
        </mxCell>
        <mxCell id="-0QeKo9lLJaK8YBAIVfO-39" value="&lt;span style=&quot;font-weight: normal;&quot;&gt;Room3&lt;/span&gt;" style="swimlane;fontStyle=1;align=center;verticalAlign=top;childLayout=stackLayout;horizontal=1;startSize=30;horizontalStack=0;resizeParent=1;resizeParentMax=0;resizeLast=0;collapsible=1;marginBottom=0;whiteSpace=wrap;html=1;" parent="1" vertex="1">
          <mxGeometry x="-905" y="-240" width="198" height="70" as="geometry" />
        </mxCell>
        <mxCell id="-0QeKo9lLJaK8YBAIVfO-40" value="&lt;div&gt;&lt;font style=&quot;font-size: 10px;&quot;&gt;+ onCreate(Bundle savedInstanceState)&lt;/font&gt;&lt;/div&gt;&lt;div&gt;+ teleport()&lt;/div&gt;" style="text;html=1;align=left;verticalAlign=middle;resizable=0;points=[];autosize=1;strokeColor=default;fillColor=none;" parent="-0QeKo9lLJaK8YBAIVfO-39" vertex="1">
          <mxGeometry y="30" width="198" height="40" as="geometry" />
        </mxCell>
        <mxCell id="-0QeKo9lLJaK8YBAIVfO-41" value="" style="edgeStyle=orthogonalEdgeStyle;rounded=0;orthogonalLoop=1;jettySize=auto;html=1;" parent="1" source="-0QeKo9lLJaK8YBAIVfO-40" target="IvUGe0hoY3nlV3LCEhh_-135" edge="1">
          <mxGeometry relative="1" as="geometry" />
        </mxCell>
        <mxCell id="-0QeKo9lLJaK8YBAIVfO-42" value="" style="endArrow=classic;html=1;rounded=0;entryX=0;entryY=0.5;entryDx=0;entryDy=0;exitX=1.003;exitY=0.053;exitDx=0;exitDy=0;exitPerimeter=0;" parent="1" source="-0QeKo9lLJaK8YBAIVfO-36" target="IvUGe0hoY3nlV3LCEhh_-131" edge="1">
          <mxGeometry width="50" height="50" relative="1" as="geometry">
            <mxPoint x="-850" y="-450" as="sourcePoint" />
            <mxPoint x="-800" y="-500" as="targetPoint" />
          </mxGeometry>
        </mxCell>
        <mxCell id="-0QeKo9lLJaK8YBAIVfO-43" value="" style="endArrow=classic;html=1;rounded=0;exitX=0.005;exitY=0.05;exitDx=0;exitDy=0;exitPerimeter=0;entryX=0.438;entryY=1.115;entryDx=0;entryDy=0;entryPerimeter=0;" parent="1" source="-0QeKo9lLJaK8YBAIVfO-40" target="IvUGe0hoY3nlV3LCEhh_-103" edge="1">
          <mxGeometry width="50" height="50" relative="1" as="geometry">
            <mxPoint x="-790" y="-420" as="sourcePoint" />
            <mxPoint x="-930" y="-500" as="targetPoint" />
            <Array as="points">
              <mxPoint x="-930" y="-208" />
              <mxPoint x="-930" y="-480" />
              <mxPoint x="-800" y="-480" />
            </Array>
          </mxGeometry>
        </mxCell>
        <mxCell id="-0QeKo9lLJaK8YBAIVfO-44" value="" style="endArrow=block;dashed=1;html=1;rounded=0;exitX=-0.022;exitY=0.643;exitDx=0;exitDy=0;exitPerimeter=0;entryX=0.321;entryY=1;entryDx=0;entryDy=0;entryPerimeter=0;endFill=0;" parent="1" source="-0QeKo9lLJaK8YBAIVfO-40" target="-0QeKo9lLJaK8YBAIVfO-10" edge="1">
          <mxGeometry width="50" height="50" relative="1" as="geometry">
            <mxPoint x="-730" y="-470" as="sourcePoint" />
            <mxPoint x="-680" y="-520" as="targetPoint" />
            <Array as="points">
              <mxPoint x="-1310" y="-184" />
            </Array>
          </mxGeometry>
        </mxCell>
        <mxCell id="-0QeKo9lLJaK8YBAIVfO-45" value="&lt;span style=&quot;font-weight: normal;&quot;&gt;StartGame&lt;/span&gt;" style="swimlane;fontStyle=1;align=center;verticalAlign=top;childLayout=stackLayout;horizontal=1;startSize=30;horizontalStack=0;resizeParent=1;resizeParentMax=0;resizeLast=0;collapsible=1;marginBottom=0;whiteSpace=wrap;html=1;" parent="1" vertex="1">
          <mxGeometry x="-1200" y="-320" width="198" height="100" as="geometry" />
        </mxCell>
        <mxCell id="-0QeKo9lLJaK8YBAIVfO-46" value="&lt;div style=&quot;&quot;&gt;&lt;font style=&quot;font-size: 12px;&quot;&gt;+ onCreate()&lt;/font&gt;&lt;/div&gt;&lt;div style=&quot;&quot;&gt;&lt;font style=&quot;font-size: 12px;&quot;&gt;+ nameCheck()&lt;/font&gt;&lt;/div&gt;&lt;div style=&quot;&quot;&gt;&lt;font style=&quot;font-size: 12px;&quot;&gt;+ difficultyCheck()&lt;/font&gt;&lt;/div&gt;&lt;div style=&quot;&quot;&gt;&lt;font style=&quot;font-size: 12px;&quot;&gt;+ characterCheck()&lt;/font&gt;&lt;/div&gt;" style="text;html=1;align=left;verticalAlign=middle;resizable=0;points=[];autosize=1;strokeColor=default;fillColor=none;" parent="-0QeKo9lLJaK8YBAIVfO-45" vertex="1">
          <mxGeometry y="30" width="198" height="70" as="geometry" />
        </mxCell>
        <mxCell id="-0QeKo9lLJaK8YBAIVfO-47" value="" style="endArrow=classic;html=1;rounded=0;exitX=0.5;exitY=1;exitDx=0;exitDy=0;entryX=0;entryY=0.5;entryDx=0;entryDy=0;" parent="1" source="-0QeKo9lLJaK8YBAIVfO-45" target="IvUGe0hoY3nlV3LCEhh_-133" edge="1">
          <mxGeometry width="50" height="50" relative="1" as="geometry">
            <mxPoint x="-1060" y="-250" as="sourcePoint" />
            <mxPoint x="-1010" y="-300" as="targetPoint" />
            <Array as="points">
              <mxPoint x="-1101" y="-119" />
            </Array>
          </mxGeometry>
        </mxCell>
        <mxCell id="-0QeKo9lLJaK8YBAIVfO-48" value="" style="endArrow=block;dashed=1;html=1;rounded=0;entryX=0;entryY=0.75;entryDx=0;entryDy=0;endFill=0;" parent="1" target="-0QeKo9lLJaK8YBAIVfO-14" edge="1">
          <mxGeometry width="50" height="50" relative="1" as="geometry">
            <mxPoint x="-1000" y="-260" as="sourcePoint" />
            <mxPoint x="-970" y="-290" as="targetPoint" />
            <Array as="points">
              <mxPoint x="-980" y="-260" />
              <mxPoint x="-980" y="-320" />
              <mxPoint x="-940" y="-320" />
              <mxPoint x="-940" y="-407" />
            </Array>
          </mxGeometry>
        </mxCell>
        <mxCell id="-0QeKo9lLJaK8YBAIVfO-52" value="&lt;span style=&quot;font-weight: normal;&quot;&gt;MainActivity&lt;/span&gt;" style="swimlane;fontStyle=1;align=center;verticalAlign=top;childLayout=stackLayout;horizontal=1;startSize=30;horizontalStack=0;resizeParent=1;resizeParentMax=0;resizeLast=0;collapsible=1;marginBottom=0;whiteSpace=wrap;html=1;" parent="1" vertex="1">
          <mxGeometry x="-1380" y="-1019" width="198" height="90" as="geometry" />
        </mxCell>
        <mxCell id="-0QeKo9lLJaK8YBAIVfO-53" value="&lt;div style=&quot;&quot;&gt;&lt;font style=&quot;font-size: 12px;&quot;&gt;+ onCreate()&lt;/font&gt;&lt;/div&gt;&lt;div style=&quot;&quot;&gt;&lt;font style=&quot;font-size: 12px;&quot;&gt;+ startButton()&lt;/font&gt;&lt;/div&gt;&lt;div style=&quot;&quot;&gt;&lt;font style=&quot;font-size: 12px;&quot;&gt;+ quitButton()&lt;/font&gt;&lt;/div&gt;" style="text;html=1;align=left;verticalAlign=middle;resizable=0;points=[];autosize=1;strokeColor=default;fillColor=none;" parent="-0QeKo9lLJaK8YBAIVfO-52" vertex="1">
          <mxGeometry y="30" width="198" height="60" as="geometry" />
        </mxCell>
        <mxCell id="-0QeKo9lLJaK8YBAIVfO-54" value="" style="endArrow=block;dashed=1;html=1;rounded=0;exitX=0.498;exitY=1.022;exitDx=0;exitDy=0;exitPerimeter=0;entryX=0.5;entryY=0;entryDx=0;entryDy=0;endFill=0;" parent="1" source="-0QeKo9lLJaK8YBAIVfO-53" target="-0QeKo9lLJaK8YBAIVfO-3" edge="1">
          <mxGeometry width="50" height="50" relative="1" as="geometry">
            <mxPoint x="-670" y="-670" as="sourcePoint" />
            <mxPoint x="-620" y="-720" as="targetPoint" />
          </mxGeometry>
        </mxCell>
        <mxCell id="-0QeKo9lLJaK8YBAIVfO-55" value="" style="endArrow=classic;html=1;rounded=0;exitX=1;exitY=0.466;exitDx=0;exitDy=0;exitPerimeter=0;entryX=0.385;entryY=-0.003;entryDx=0;entryDy=0;entryPerimeter=0;" parent="1" source="-0QeKo9lLJaK8YBAIVfO-53" target="IvUGe0hoY3nlV3LCEhh_-96" edge="1">
          <mxGeometry width="50" height="50" relative="1" as="geometry">
            <mxPoint x="-610" y="-600" as="sourcePoint" />
            <mxPoint x="-560" y="-650" as="targetPoint" />
            <Array as="points">
              <mxPoint x="-1116" y="-961" />
            </Array>
          </mxGeometry>
        </mxCell>
        <mxCell id="eQlO46QIHx-tQtAb_hwM-35" style="edgeStyle=orthogonalEdgeStyle;rounded=0;orthogonalLoop=1;jettySize=auto;html=1;exitX=0;exitY=0.5;exitDx=0;exitDy=0;entryX=1;entryY=0.5;entryDx=0;entryDy=0;endArrow=none;endFill=0;startArrow=classic;startFill=1;dashed=1;" edge="1" parent="1" source="IvUGe0hoY3nlV3LCEhh_-128" target="IvUGe0hoY3nlV3LCEhh_-103">
          <mxGeometry relative="1" as="geometry" />
        </mxCell>
        <mxCell id="eQlO46QIHx-tQtAb_hwM-36" value="MoveEnemyDown" style="swimlane;fontStyle=0;childLayout=stackLayout;horizontal=1;startSize=30;horizontalStack=0;resizeParent=1;resizeParentMax=0;resizeLast=0;collapsible=1;marginBottom=0;whiteSpace=wrap;html=1;" vertex="1" parent="1">
          <mxGeometry x="-768" y="-1421" width="177" height="60" as="geometry" />
        </mxCell>
        <mxCell id="eQlO46QIHx-tQtAb_hwM-37" value="+ move(ImageView)" style="text;strokeColor=none;fillColor=none;align=left;verticalAlign=middle;spacingLeft=4;spacingRight=4;overflow=hidden;points=[[0,0.5],[1,0.5]];portConstraint=eastwest;rotatable=0;whiteSpace=wrap;html=1;" vertex="1" parent="eQlO46QIHx-tQtAb_hwM-36">
          <mxGeometry y="30" width="177" height="30" as="geometry" />
        </mxCell>
        <mxCell id="eQlO46QIHx-tQtAb_hwM-38" value="" style="edgeStyle=orthogonalEdgeStyle;rounded=0;orthogonalLoop=1;jettySize=auto;html=1;dashed=1;endArrow=block;endFill=0;" edge="1" parent="1" source="eQlO46QIHx-tQtAb_hwM-39" target="eQlO46QIHx-tQtAb_hwM-81">
          <mxGeometry relative="1" as="geometry">
            <Array as="points">
              <mxPoint x="-571" y="-1450" />
              <mxPoint x="-571" y="-1441" />
            </Array>
          </mxGeometry>
        </mxCell>
        <mxCell id="eQlO46QIHx-tQtAb_hwM-39" value="MoveEnemyLeft" style="swimlane;fontStyle=0;childLayout=stackLayout;horizontal=1;startSize=30;horizontalStack=0;resizeParent=1;resizeParentMax=0;resizeLast=0;collapsible=1;marginBottom=0;whiteSpace=wrap;html=1;" vertex="1" parent="1">
          <mxGeometry x="-771" y="-1501" width="180" height="60" as="geometry" />
        </mxCell>
        <mxCell id="eQlO46QIHx-tQtAb_hwM-40" value="+ move(ImageView)" style="text;strokeColor=none;fillColor=none;align=left;verticalAlign=middle;spacingLeft=4;spacingRight=4;overflow=hidden;points=[[0,0.5],[1,0.5]];portConstraint=eastwest;rotatable=0;whiteSpace=wrap;html=1;" vertex="1" parent="eQlO46QIHx-tQtAb_hwM-39">
          <mxGeometry y="30" width="180" height="30" as="geometry" />
        </mxCell>
        <mxCell id="eQlO46QIHx-tQtAb_hwM-41" style="edgeStyle=orthogonalEdgeStyle;rounded=0;orthogonalLoop=1;jettySize=auto;html=1;entryX=0;entryY=0.25;entryDx=0;entryDy=0;dashed=1;endArrow=block;endFill=0;" edge="1" parent="1" source="eQlO46QIHx-tQtAb_hwM-42" target="eQlO46QIHx-tQtAb_hwM-80">
          <mxGeometry relative="1" as="geometry" />
        </mxCell>
        <mxCell id="eQlO46QIHx-tQtAb_hwM-42" value="MoveEnemyRight" style="swimlane;fontStyle=0;childLayout=stackLayout;horizontal=1;startSize=30;horizontalStack=0;resizeParent=1;resizeParentMax=0;resizeLast=0;collapsible=1;marginBottom=0;whiteSpace=wrap;html=1;" vertex="1" parent="1">
          <mxGeometry x="-768" y="-1580" width="177" height="60" as="geometry" />
        </mxCell>
        <mxCell id="eQlO46QIHx-tQtAb_hwM-43" value="+ move(ImageView)" style="text;strokeColor=none;fillColor=none;align=left;verticalAlign=middle;spacingLeft=4;spacingRight=4;overflow=hidden;points=[[0,0.5],[1,0.5]];portConstraint=eastwest;rotatable=0;whiteSpace=wrap;html=1;" vertex="1" parent="eQlO46QIHx-tQtAb_hwM-42">
          <mxGeometry y="30" width="177" height="30" as="geometry" />
        </mxCell>
        <mxCell id="eQlO46QIHx-tQtAb_hwM-44" value="&lt;span style=&quot;font-weight: normal;&quot;&gt;MoveEnemyDownObserver&lt;/span&gt;" style="swimlane;fontStyle=1;align=center;verticalAlign=top;childLayout=stackLayout;horizontal=1;startSize=26;horizontalStack=0;resizeParent=1;resizeParentMax=0;resizeLast=0;collapsible=1;marginBottom=0;whiteSpace=wrap;html=1;" vertex="1" parent="1">
          <mxGeometry x="-1040" y="-1448" width="189" height="52" as="geometry" />
        </mxCell>
        <mxCell id="eQlO46QIHx-tQtAb_hwM-45" value="+ handleMovement(ImageView):" style="text;strokeColor=none;fillColor=none;align=left;verticalAlign=top;spacingLeft=4;spacingRight=4;overflow=hidden;rotatable=0;points=[[0,0.5],[1,0.5]];portConstraint=eastwest;whiteSpace=wrap;html=1;" vertex="1" parent="eQlO46QIHx-tQtAb_hwM-44">
          <mxGeometry y="26" width="189" height="26" as="geometry" />
        </mxCell>
        <mxCell id="eQlO46QIHx-tQtAb_hwM-46" value="&lt;span style=&quot;font-weight: normal;&quot;&gt;MoveEnemyLeftObserver&lt;/span&gt;" style="swimlane;fontStyle=1;align=center;verticalAlign=top;childLayout=stackLayout;horizontal=1;startSize=26;horizontalStack=0;resizeParent=1;resizeParentMax=0;resizeLast=0;collapsible=1;marginBottom=0;whiteSpace=wrap;html=1;" vertex="1" parent="1">
          <mxGeometry x="-1040" y="-1507" width="189" height="52" as="geometry" />
        </mxCell>
        <mxCell id="eQlO46QIHx-tQtAb_hwM-47" value="+ handleMovement(ImageView):" style="text;strokeColor=none;fillColor=none;align=left;verticalAlign=top;spacingLeft=4;spacingRight=4;overflow=hidden;rotatable=0;points=[[0,0.5],[1,0.5]];portConstraint=eastwest;whiteSpace=wrap;html=1;" vertex="1" parent="eQlO46QIHx-tQtAb_hwM-46">
          <mxGeometry y="26" width="189" height="26" as="geometry" />
        </mxCell>
        <mxCell id="eQlO46QIHx-tQtAb_hwM-48" style="edgeStyle=orthogonalEdgeStyle;rounded=0;orthogonalLoop=1;jettySize=auto;html=1;entryX=0.5;entryY=0;entryDx=0;entryDy=0;endArrow=block;endFill=1;" edge="1" parent="1" source="eQlO46QIHx-tQtAb_hwM-50" target="eQlO46QIHx-tQtAb_hwM-42">
          <mxGeometry relative="1" as="geometry" />
        </mxCell>
        <mxCell id="eQlO46QIHx-tQtAb_hwM-49" style="edgeStyle=orthogonalEdgeStyle;rounded=0;orthogonalLoop=1;jettySize=auto;html=1;entryX=0;entryY=0.25;entryDx=0;entryDy=0;dashed=1;endArrow=block;endFill=0;" edge="1" parent="1" source="eQlO46QIHx-tQtAb_hwM-50" target="eQlO46QIHx-tQtAb_hwM-55">
          <mxGeometry relative="1" as="geometry">
            <Array as="points">
              <mxPoint x="-800" y="-1560" />
              <mxPoint x="-800" y="-1295" />
            </Array>
          </mxGeometry>
        </mxCell>
        <mxCell id="eQlO46QIHx-tQtAb_hwM-50" value="&lt;span style=&quot;font-weight: normal;&quot;&gt;MoveEnemyRightObserver&lt;/span&gt;" style="swimlane;fontStyle=1;align=center;verticalAlign=top;childLayout=stackLayout;horizontal=1;startSize=26;horizontalStack=0;resizeParent=1;resizeParentMax=0;resizeLast=0;collapsible=1;marginBottom=0;whiteSpace=wrap;html=1;" vertex="1" parent="1">
          <mxGeometry x="-1040" y="-1570" width="189" height="52" as="geometry" />
        </mxCell>
        <mxCell id="eQlO46QIHx-tQtAb_hwM-51" value="+ handleMovement(ImageView):" style="text;strokeColor=none;fillColor=none;align=left;verticalAlign=top;spacingLeft=4;spacingRight=4;overflow=hidden;rotatable=0;points=[[0,0.5],[1,0.5]];portConstraint=eastwest;whiteSpace=wrap;html=1;" vertex="1" parent="eQlO46QIHx-tQtAb_hwM-50">
          <mxGeometry y="26" width="189" height="26" as="geometry" />
        </mxCell>
        <mxCell id="eQlO46QIHx-tQtAb_hwM-52" style="edgeStyle=orthogonalEdgeStyle;rounded=0;orthogonalLoop=1;jettySize=auto;html=1;entryX=0;entryY=0.273;entryDx=0;entryDy=0;entryPerimeter=0;endArrow=block;endFill=1;" edge="1" parent="1" source="eQlO46QIHx-tQtAb_hwM-46" target="eQlO46QIHx-tQtAb_hwM-40">
          <mxGeometry relative="1" as="geometry" />
        </mxCell>
        <mxCell id="eQlO46QIHx-tQtAb_hwM-53" style="edgeStyle=orthogonalEdgeStyle;rounded=0;orthogonalLoop=1;jettySize=auto;html=1;entryX=-0.008;entryY=0.167;entryDx=0;entryDy=0;entryPerimeter=0;endArrow=block;endFill=1;" edge="1" parent="1" source="eQlO46QIHx-tQtAb_hwM-44" target="eQlO46QIHx-tQtAb_hwM-37">
          <mxGeometry relative="1" as="geometry" />
        </mxCell>
        <mxCell id="eQlO46QIHx-tQtAb_hwM-54" style="edgeStyle=orthogonalEdgeStyle;rounded=0;orthogonalLoop=1;jettySize=auto;html=1;entryX=0;entryY=0.25;entryDx=0;entryDy=0;dashed=1;endArrow=block;endFill=0;" edge="1" parent="1">
          <mxGeometry relative="1" as="geometry">
            <mxPoint x="-768" y="-1305" as="targetPoint" />
            <Array as="points">
              <mxPoint x="-790" y="-1468" />
              <mxPoint x="-790" y="-1305" />
            </Array>
            <mxPoint x="-851" y="-1468" as="sourcePoint" />
          </mxGeometry>
        </mxCell>
        <mxCell id="eQlO46QIHx-tQtAb_hwM-55" value="&amp;lt;&amp;lt;interface&amp;gt;&amp;gt;&lt;br&gt;EnemyMovementObserver" style="swimlane;fontStyle=0;childLayout=stackLayout;horizontal=1;startSize=30;horizontalStack=0;resizeParent=1;resizeParentMax=0;resizeLast=0;collapsible=1;marginBottom=0;whiteSpace=wrap;html=1;" vertex="1" parent="1">
          <mxGeometry x="-771" y="-1310" width="225" height="60" as="geometry" />
        </mxCell>
        <mxCell id="eQlO46QIHx-tQtAb_hwM-56" value="+ handleMovement(ImageView)" style="text;strokeColor=none;fillColor=none;align=left;verticalAlign=middle;spacingLeft=4;spacingRight=4;overflow=hidden;points=[[0,0.5],[1,0.5]];portConstraint=eastwest;rotatable=0;whiteSpace=wrap;html=1;" vertex="1" parent="eQlO46QIHx-tQtAb_hwM-55">
          <mxGeometry y="30" width="225" height="30" as="geometry" />
        </mxCell>
        <mxCell id="eQlO46QIHx-tQtAb_hwM-57" style="edgeStyle=orthogonalEdgeStyle;rounded=0;orthogonalLoop=1;jettySize=auto;html=1;entryX=1;entryY=0.25;entryDx=0;entryDy=0;startArrow=diamondThin;startFill=0;" edge="1" parent="1" source="eQlO46QIHx-tQtAb_hwM-60" target="eQlO46QIHx-tQtAb_hwM-55">
          <mxGeometry relative="1" as="geometry" />
        </mxCell>
        <mxCell id="eQlO46QIHx-tQtAb_hwM-58" value="0..*" style="edgeLabel;html=1;align=center;verticalAlign=middle;resizable=0;points=[];" vertex="1" connectable="0" parent="eQlO46QIHx-tQtAb_hwM-57">
          <mxGeometry x="-0.3818" y="-1" relative="1" as="geometry">
            <mxPoint x="-44" y="8" as="offset" />
          </mxGeometry>
        </mxCell>
        <mxCell id="eQlO46QIHx-tQtAb_hwM-59" value="observers" style="edgeLabel;html=1;align=center;verticalAlign=middle;resizable=0;points=[];" vertex="1" connectable="0" parent="eQlO46QIHx-tQtAb_hwM-57">
          <mxGeometry x="0.1593" y="1" relative="1" as="geometry">
            <mxPoint y="-33" as="offset" />
          </mxGeometry>
        </mxCell>
        <mxCell id="eQlO46QIHx-tQtAb_hwM-60" value="&lt;span style=&quot;font-weight: normal;&quot;&gt;EnemyMovementSubject&lt;/span&gt;" style="swimlane;fontStyle=1;align=center;verticalAlign=top;childLayout=stackLayout;horizontal=1;startSize=26;horizontalStack=0;resizeParent=1;resizeParentMax=0;resizeLast=0;collapsible=1;marginBottom=0;whiteSpace=wrap;html=1;" vertex="1" parent="1">
          <mxGeometry x="-450" y="-1384" width="270" height="134" as="geometry" />
        </mxCell>
        <mxCell id="eQlO46QIHx-tQtAb_hwM-61" value="- observers: EnemyMovementObservers[]" style="text;strokeColor=none;fillColor=none;align=left;verticalAlign=top;spacingLeft=4;spacingRight=4;overflow=hidden;rotatable=0;points=[[0,0.5],[1,0.5]];portConstraint=eastwest;whiteSpace=wrap;html=1;" vertex="1" parent="eQlO46QIHx-tQtAb_hwM-60">
          <mxGeometry y="26" width="270" height="22" as="geometry" />
        </mxCell>
        <mxCell id="eQlO46QIHx-tQtAb_hwM-62" value="" style="line;strokeWidth=1;fillColor=none;align=left;verticalAlign=middle;spacingTop=-1;spacingLeft=3;spacingRight=3;rotatable=0;labelPosition=right;points=[];portConstraint=eastwest;strokeColor=inherit;" vertex="1" parent="eQlO46QIHx-tQtAb_hwM-60">
          <mxGeometry y="48" width="270" height="8" as="geometry" />
        </mxCell>
        <mxCell id="eQlO46QIHx-tQtAb_hwM-63" value="+ addObserver(EnemyMovementObserver)" style="text;strokeColor=none;fillColor=none;align=left;verticalAlign=top;spacingLeft=4;spacingRight=4;overflow=hidden;rotatable=0;points=[[0,0.5],[1,0.5]];portConstraint=eastwest;whiteSpace=wrap;html=1;" vertex="1" parent="eQlO46QIHx-tQtAb_hwM-60">
          <mxGeometry y="56" width="270" height="26" as="geometry" />
        </mxCell>
        <mxCell id="eQlO46QIHx-tQtAb_hwM-64" value="+ removeObserver(EnemyMovementObserver)" style="text;strokeColor=none;fillColor=none;align=left;verticalAlign=top;spacingLeft=4;spacingRight=4;overflow=hidden;rotatable=0;points=[[0,0.5],[1,0.5]];portConstraint=eastwest;whiteSpace=wrap;html=1;" vertex="1" parent="eQlO46QIHx-tQtAb_hwM-60">
          <mxGeometry y="82" width="270" height="26" as="geometry" />
        </mxCell>
        <mxCell id="eQlO46QIHx-tQtAb_hwM-65" value="+ notifyObservers(ImageView)" style="text;strokeColor=none;fillColor=none;align=left;verticalAlign=top;spacingLeft=4;spacingRight=4;overflow=hidden;rotatable=0;points=[[0,0.5],[1,0.5]];portConstraint=eastwest;whiteSpace=wrap;html=1;" vertex="1" parent="eQlO46QIHx-tQtAb_hwM-60">
          <mxGeometry y="108" width="270" height="26" as="geometry" />
        </mxCell>
        <mxCell id="eQlO46QIHx-tQtAb_hwM-66" style="edgeStyle=orthogonalEdgeStyle;rounded=0;orthogonalLoop=1;jettySize=auto;html=1;entryX=0.5;entryY=0;entryDx=0;entryDy=0;endArrow=block;endFill=0;" edge="1" parent="1" source="eQlO46QIHx-tQtAb_hwM-67" target="eQlO46QIHx-tQtAb_hwM-76">
          <mxGeometry relative="1" as="geometry" />
        </mxCell>
        <mxCell id="eQlO46QIHx-tQtAb_hwM-67" value="EnemyMoveRight" style="swimlane;fontStyle=0;childLayout=stackLayout;horizontal=1;startSize=30;horizontalStack=0;resizeParent=1;resizeParentMax=0;resizeLast=0;collapsible=1;marginBottom=0;whiteSpace=wrap;html=1;" vertex="1" parent="1">
          <mxGeometry x="-1250" y="-1580" width="177" height="60" as="geometry" />
        </mxCell>
        <mxCell id="eQlO46QIHx-tQtAb_hwM-68" value="+ move(ImageView)" style="text;strokeColor=none;fillColor=none;align=left;verticalAlign=middle;spacingLeft=4;spacingRight=4;overflow=hidden;points=[[0,0.5],[1,0.5]];portConstraint=eastwest;rotatable=0;whiteSpace=wrap;html=1;" vertex="1" parent="eQlO46QIHx-tQtAb_hwM-67">
          <mxGeometry y="30" width="177" height="30" as="geometry" />
        </mxCell>
        <mxCell id="eQlO46QIHx-tQtAb_hwM-69" value="LargeEnemy" style="swimlane;fontStyle=0;childLayout=stackLayout;horizontal=1;startSize=30;horizontalStack=0;resizeParent=1;resizeParentMax=0;resizeLast=0;collapsible=1;marginBottom=0;whiteSpace=wrap;html=1;" vertex="1" parent="1">
          <mxGeometry x="-1250" y="-1441" width="177" height="60" as="geometry" />
        </mxCell>
        <mxCell id="eQlO46QIHx-tQtAb_hwM-70" value="+ move(ImageView)" style="text;strokeColor=none;fillColor=none;align=left;verticalAlign=middle;spacingLeft=4;spacingRight=4;overflow=hidden;points=[[0,0.5],[1,0.5]];portConstraint=eastwest;rotatable=0;whiteSpace=wrap;html=1;" vertex="1" parent="eQlO46QIHx-tQtAb_hwM-69">
          <mxGeometry y="30" width="177" height="30" as="geometry" />
        </mxCell>
        <mxCell id="eQlO46QIHx-tQtAb_hwM-71" style="edgeStyle=orthogonalEdgeStyle;rounded=0;orthogonalLoop=1;jettySize=auto;html=1;entryX=0.75;entryY=0;entryDx=0;entryDy=0;endArrow=block;endFill=0;" edge="1" parent="1" source="eQlO46QIHx-tQtAb_hwM-72" target="eQlO46QIHx-tQtAb_hwM-76">
          <mxGeometry relative="1" as="geometry" />
        </mxCell>
        <mxCell id="eQlO46QIHx-tQtAb_hwM-72" value="GruntEnemy" style="swimlane;fontStyle=0;childLayout=stackLayout;horizontal=1;startSize=30;horizontalStack=0;resizeParent=1;resizeParentMax=0;resizeLast=0;collapsible=1;marginBottom=0;whiteSpace=wrap;html=1;" vertex="1" parent="1">
          <mxGeometry x="-1250" y="-1510" width="177" height="60" as="geometry" />
        </mxCell>
        <mxCell id="eQlO46QIHx-tQtAb_hwM-73" value="+ move(ImageView)" style="text;strokeColor=none;fillColor=none;align=left;verticalAlign=middle;spacingLeft=4;spacingRight=4;overflow=hidden;points=[[0,0.5],[1,0.5]];portConstraint=eastwest;rotatable=0;whiteSpace=wrap;html=1;" vertex="1" parent="eQlO46QIHx-tQtAb_hwM-72">
          <mxGeometry y="30" width="177" height="30" as="geometry" />
        </mxCell>
        <mxCell id="eQlO46QIHx-tQtAb_hwM-74" value="SmallEnemy" style="swimlane;fontStyle=0;childLayout=stackLayout;horizontal=1;startSize=30;horizontalStack=0;resizeParent=1;resizeParentMax=0;resizeLast=0;collapsible=1;marginBottom=0;whiteSpace=wrap;html=1;" vertex="1" parent="1">
          <mxGeometry x="-1250" y="-1370" width="177" height="60" as="geometry" />
        </mxCell>
        <mxCell id="eQlO46QIHx-tQtAb_hwM-75" value="+ move(ImageView)" style="text;strokeColor=none;fillColor=none;align=left;verticalAlign=middle;spacingLeft=4;spacingRight=4;overflow=hidden;points=[[0,0.5],[1,0.5]];portConstraint=eastwest;rotatable=0;whiteSpace=wrap;html=1;" vertex="1" parent="eQlO46QIHx-tQtAb_hwM-74">
          <mxGeometry y="30" width="177" height="30" as="geometry" />
        </mxCell>
        <mxCell id="eQlO46QIHx-tQtAb_hwM-76" value="&lt;span style=&quot;font-weight: normal;&quot;&gt;Enemy&lt;/span&gt;" style="swimlane;fontStyle=1;align=center;verticalAlign=top;childLayout=stackLayout;horizontal=1;startSize=26;horizontalStack=0;resizeParent=1;resizeParentMax=0;resizeLast=0;collapsible=1;marginBottom=0;whiteSpace=wrap;html=1;" vertex="1" parent="1">
          <mxGeometry x="-1550" y="-1486" width="270" height="90" as="geometry" />
        </mxCell>
        <mxCell id="eQlO46QIHx-tQtAb_hwM-77" value="- movementStrategy: MovementStrategy&lt;br&gt;-&amp;nbsp;" style="text;strokeColor=none;fillColor=none;align=left;verticalAlign=top;spacingLeft=4;spacingRight=4;overflow=hidden;rotatable=0;points=[[0,0.5],[1,0.5]];portConstraint=eastwest;whiteSpace=wrap;html=1;" vertex="1" parent="eQlO46QIHx-tQtAb_hwM-76">
          <mxGeometry y="26" width="270" height="26" as="geometry" />
        </mxCell>
        <mxCell id="eQlO46QIHx-tQtAb_hwM-78" value="" style="line;strokeWidth=1;fillColor=none;align=left;verticalAlign=middle;spacingTop=-1;spacingLeft=3;spacingRight=3;rotatable=0;labelPosition=right;points=[];portConstraint=eastwest;strokeColor=inherit;" vertex="1" parent="eQlO46QIHx-tQtAb_hwM-76">
          <mxGeometry y="52" width="270" height="8" as="geometry" />
        </mxCell>
        <mxCell id="eQlO46QIHx-tQtAb_hwM-79" value="+ touchingPlayer(): boolean" style="text;strokeColor=none;fillColor=none;align=left;verticalAlign=top;spacingLeft=4;spacingRight=4;overflow=hidden;rotatable=0;points=[[0,0.5],[1,0.5]];portConstraint=eastwest;whiteSpace=wrap;html=1;" vertex="1" parent="eQlO46QIHx-tQtAb_hwM-76">
          <mxGeometry y="60" width="270" height="30" as="geometry" />
        </mxCell>
        <mxCell id="eQlO46QIHx-tQtAb_hwM-80" value="&amp;lt;&amp;lt;interface&amp;gt;&amp;gt;&lt;br&gt;EnemyMovementStrategy" style="swimlane;fontStyle=0;childLayout=stackLayout;horizontal=1;startSize=30;horizontalStack=0;resizeParent=1;resizeParentMax=0;resizeLast=0;collapsible=1;marginBottom=0;whiteSpace=wrap;html=1;" vertex="1" parent="1">
          <mxGeometry x="-560" y="-1486" width="160" height="60" as="geometry" />
        </mxCell>
        <mxCell id="eQlO46QIHx-tQtAb_hwM-81" value="+ move(ImageView, double)" style="text;strokeColor=none;fillColor=none;align=left;verticalAlign=middle;spacingLeft=4;spacingRight=4;overflow=hidden;points=[[0,0.5],[1,0.5]];portConstraint=eastwest;rotatable=0;whiteSpace=wrap;html=1;" vertex="1" parent="eQlO46QIHx-tQtAb_hwM-80">
          <mxGeometry y="30" width="160" height="30" as="geometry" />
        </mxCell>
        <mxCell id="eQlO46QIHx-tQtAb_hwM-82" style="edgeStyle=orthogonalEdgeStyle;rounded=0;orthogonalLoop=1;jettySize=auto;html=1;entryX=1.01;entryY=0.846;entryDx=0;entryDy=0;entryPerimeter=0;endArrow=block;endFill=0;" edge="1" parent="1" source="eQlO46QIHx-tQtAb_hwM-69" target="eQlO46QIHx-tQtAb_hwM-77">
          <mxGeometry relative="1" as="geometry" />
        </mxCell>
        <mxCell id="eQlO46QIHx-tQtAb_hwM-83" style="edgeStyle=orthogonalEdgeStyle;rounded=0;orthogonalLoop=1;jettySize=auto;html=1;endArrow=block;endFill=0;exitX=0.011;exitY=0.033;exitDx=0;exitDy=0;exitPerimeter=0;" edge="1" parent="1" source="eQlO46QIHx-tQtAb_hwM-75">
          <mxGeometry relative="1" as="geometry">
            <mxPoint x="-1320" y="-1400" as="targetPoint" />
            <Array as="points">
              <mxPoint x="-1320" y="-1339" />
            </Array>
          </mxGeometry>
        </mxCell>
        <mxCell id="eQlO46QIHx-tQtAb_hwM-84" style="edgeStyle=orthogonalEdgeStyle;rounded=0;orthogonalLoop=1;jettySize=auto;html=1;entryX=0.496;entryY=1.087;entryDx=0;entryDy=0;entryPerimeter=0;endArrow=open;endFill=0;exitX=0.5;exitY=0;exitDx=0;exitDy=0;startArrow=diamondThin;startFill=0;" edge="1" parent="1" source="eQlO46QIHx-tQtAb_hwM-87" target="eQlO46QIHx-tQtAb_hwM-79">
          <mxGeometry relative="1" as="geometry">
            <mxPoint x="-1415" y="-1366" as="sourcePoint" />
            <Array as="points">
              <mxPoint x="-1415" y="-1381" />
              <mxPoint x="-1416" y="-1381" />
            </Array>
          </mxGeometry>
        </mxCell>
        <mxCell id="eQlO46QIHx-tQtAb_hwM-85" value="0..*" style="edgeLabel;html=1;align=center;verticalAlign=middle;resizable=0;points=[];" vertex="1" connectable="0" parent="eQlO46QIHx-tQtAb_hwM-84">
          <mxGeometry x="0.0511" y="-3" relative="1" as="geometry">
            <mxPoint x="-18" y="-5" as="offset" />
          </mxGeometry>
        </mxCell>
        <mxCell id="eQlO46QIHx-tQtAb_hwM-86" value="enemies" style="edgeLabel;html=1;align=center;verticalAlign=middle;resizable=0;points=[];" vertex="1" connectable="0" parent="eQlO46QIHx-tQtAb_hwM-84">
          <mxGeometry x="0.0511" relative="1" as="geometry">
            <mxPoint x="25" as="offset" />
          </mxGeometry>
        </mxCell>
        <mxCell id="eQlO46QIHx-tQtAb_hwM-87" value="&lt;span style=&quot;font-weight: normal;&quot;&gt;EnemyFactory&lt;/span&gt;" style="swimlane;fontStyle=1;align=center;verticalAlign=top;childLayout=stackLayout;horizontal=1;startSize=26;horizontalStack=0;resizeParent=1;resizeParentMax=0;resizeLast=0;collapsible=1;marginBottom=0;whiteSpace=wrap;html=1;" vertex="1" parent="1">
          <mxGeometry x="-1495" y="-1361" width="160" height="86" as="geometry" />
        </mxCell>
        <mxCell id="eQlO46QIHx-tQtAb_hwM-88" value="- enemies: Enemy[]" style="text;strokeColor=none;fillColor=none;align=left;verticalAlign=top;spacingLeft=4;spacingRight=4;overflow=hidden;rotatable=0;points=[[0,0.5],[1,0.5]];portConstraint=eastwest;whiteSpace=wrap;html=1;" vertex="1" parent="eQlO46QIHx-tQtAb_hwM-87">
          <mxGeometry y="26" width="160" height="26" as="geometry" />
        </mxCell>
        <mxCell id="eQlO46QIHx-tQtAb_hwM-89" value="" style="line;strokeWidth=1;fillColor=none;align=left;verticalAlign=middle;spacingTop=-1;spacingLeft=3;spacingRight=3;rotatable=0;labelPosition=right;points=[];portConstraint=eastwest;strokeColor=inherit;" vertex="1" parent="eQlO46QIHx-tQtAb_hwM-87">
          <mxGeometry y="52" width="160" height="8" as="geometry" />
        </mxCell>
        <mxCell id="eQlO46QIHx-tQtAb_hwM-90" value="+ createEnemy(String):" style="text;strokeColor=none;fillColor=none;align=left;verticalAlign=top;spacingLeft=4;spacingRight=4;overflow=hidden;rotatable=0;points=[[0,0.5],[1,0.5]];portConstraint=eastwest;whiteSpace=wrap;html=1;" vertex="1" parent="eQlO46QIHx-tQtAb_hwM-87">
          <mxGeometry y="60" width="160" height="26" as="geometry" />
        </mxCell>
        <mxCell id="eQlO46QIHx-tQtAb_hwM-91" style="edgeStyle=orthogonalEdgeStyle;rounded=0;orthogonalLoop=1;jettySize=auto;html=1;entryX=0.5;entryY=0;entryDx=0;entryDy=0;dashed=1;endArrow=block;endFill=0;" edge="1" parent="1" source="eQlO46QIHx-tQtAb_hwM-92" target="eQlO46QIHx-tQtAb_hwM-80">
          <mxGeometry relative="1" as="geometry" />
        </mxCell>
        <mxCell id="eQlO46QIHx-tQtAb_hwM-92" value="MoveEnemyUp" style="swimlane;fontStyle=0;childLayout=stackLayout;horizontal=1;startSize=30;horizontalStack=0;resizeParent=1;resizeParentMax=0;resizeLast=0;collapsible=1;marginBottom=0;whiteSpace=wrap;html=1;" vertex="1" parent="1">
          <mxGeometry x="-560" y="-1600" width="177" height="60" as="geometry" />
        </mxCell>
        <mxCell id="eQlO46QIHx-tQtAb_hwM-93" value="+ move(ImageView)" style="text;strokeColor=none;fillColor=none;align=left;verticalAlign=middle;spacingLeft=4;spacingRight=4;overflow=hidden;points=[[0,0.5],[1,0.5]];portConstraint=eastwest;rotatable=0;whiteSpace=wrap;html=1;" vertex="1" parent="eQlO46QIHx-tQtAb_hwM-92">
          <mxGeometry y="30" width="177" height="30" as="geometry" />
        </mxCell>
        <mxCell id="eQlO46QIHx-tQtAb_hwM-94" style="edgeStyle=orthogonalEdgeStyle;rounded=0;orthogonalLoop=1;jettySize=auto;html=1;entryX=0.255;entryY=1.073;entryDx=0;entryDy=0;entryPerimeter=0;dashed=1;endArrow=block;endFill=0;" edge="1" parent="1" source="eQlO46QIHx-tQtAb_hwM-36" target="eQlO46QIHx-tQtAb_hwM-81">
          <mxGeometry relative="1" as="geometry">
            <Array as="points">
              <mxPoint x="-560" y="-1391" />
              <mxPoint x="-560" y="-1390" />
              <mxPoint x="-519" y="-1390" />
            </Array>
          </mxGeometry>
        </mxCell>
        <mxCell id="eQlO46QIHx-tQtAb_hwM-95" style="edgeStyle=orthogonalEdgeStyle;rounded=0;orthogonalLoop=1;jettySize=auto;html=1;entryX=-0.004;entryY=0.06;entryDx=0;entryDy=0;entryPerimeter=0;dashed=1;endArrow=block;endFill=0;" edge="1" parent="1" source="eQlO46QIHx-tQtAb_hwM-44" target="eQlO46QIHx-tQtAb_hwM-56">
          <mxGeometry relative="1" as="geometry">
            <Array as="points">
              <mxPoint x="-860" y="-1278" />
            </Array>
          </mxGeometry>
        </mxCell>
        <mxCell id="eQlO46QIHx-tQtAb_hwM-96" style="edgeStyle=orthogonalEdgeStyle;rounded=0;orthogonalLoop=1;jettySize=auto;html=1;entryX=0;entryY=0.75;entryDx=0;entryDy=0;dashed=1;endArrow=block;endFill=0;" edge="1" parent="1" source="eQlO46QIHx-tQtAb_hwM-98" target="eQlO46QIHx-tQtAb_hwM-55">
          <mxGeometry relative="1" as="geometry">
            <Array as="points">
              <mxPoint x="-930" y="-1660" />
              <mxPoint x="-820" y="-1660" />
              <mxPoint x="-820" y="-1265" />
            </Array>
          </mxGeometry>
        </mxCell>
        <mxCell id="eQlO46QIHx-tQtAb_hwM-97" style="edgeStyle=orthogonalEdgeStyle;rounded=0;orthogonalLoop=1;jettySize=auto;html=1;entryX=0.5;entryY=0;entryDx=0;entryDy=0;" edge="1" parent="1" source="eQlO46QIHx-tQtAb_hwM-98" target="eQlO46QIHx-tQtAb_hwM-92">
          <mxGeometry relative="1" as="geometry">
            <Array as="points">
              <mxPoint x="-947" y="-1670" />
              <mxPoint x="-471" y="-1670" />
            </Array>
          </mxGeometry>
        </mxCell>
        <mxCell id="eQlO46QIHx-tQtAb_hwM-98" value="&lt;span style=&quot;font-weight: normal;&quot;&gt;MoveEnemyUpObserver&lt;/span&gt;" style="swimlane;fontStyle=1;align=center;verticalAlign=top;childLayout=stackLayout;horizontal=1;startSize=26;horizontalStack=0;resizeParent=1;resizeParentMax=0;resizeLast=0;collapsible=1;marginBottom=0;whiteSpace=wrap;html=1;" vertex="1" parent="1">
          <mxGeometry x="-1040" y="-1632" width="185" height="52" as="geometry" />
        </mxCell>
        <mxCell id="eQlO46QIHx-tQtAb_hwM-99" value="+ handleMovement(ImageView):" style="text;strokeColor=none;fillColor=none;align=left;verticalAlign=top;spacingLeft=4;spacingRight=4;overflow=hidden;rotatable=0;points=[[0,0.5],[1,0.5]];portConstraint=eastwest;whiteSpace=wrap;html=1;" vertex="1" parent="eQlO46QIHx-tQtAb_hwM-98">
          <mxGeometry y="26" width="185" height="26" as="geometry" />
        </mxCell>
        <mxCell id="eQlO46QIHx-tQtAb_hwM-100" value="&amp;lt;&amp;lt;interface&amp;gt;&amp;gt;&lt;br&gt;MovementStrategy" style="swimlane;fontStyle=0;childLayout=stackLayout;horizontal=1;startSize=30;horizontalStack=0;resizeParent=1;resizeParentMax=0;resizeLast=0;collapsible=1;marginBottom=0;whiteSpace=wrap;html=1;" vertex="1" parent="1">
          <mxGeometry x="-1670" y="-1370" width="160" height="60" as="geometry" />
        </mxCell>
        <mxCell id="eQlO46QIHx-tQtAb_hwM-101" value="+ move(ImageView)" style="text;strokeColor=none;fillColor=none;align=left;verticalAlign=middle;spacingLeft=4;spacingRight=4;overflow=hidden;points=[[0,0.5],[1,0.5]];portConstraint=eastwest;rotatable=0;whiteSpace=wrap;html=1;" vertex="1" parent="eQlO46QIHx-tQtAb_hwM-100">
          <mxGeometry y="30" width="160" height="30" as="geometry" />
        </mxCell>
        <mxCell id="eQlO46QIHx-tQtAb_hwM-102" style="edgeStyle=orthogonalEdgeStyle;rounded=0;orthogonalLoop=1;jettySize=auto;html=1;entryX=0.5;entryY=0;entryDx=0;entryDy=0;endArrow=none;endFill=0;" edge="1" parent="1" source="eQlO46QIHx-tQtAb_hwM-77" target="eQlO46QIHx-tQtAb_hwM-100">
          <mxGeometry relative="1" as="geometry" />
        </mxCell>
      </root>
    </mxGraphModel>
  </diagram>
</mxfile>
